<?xml version="1.0" encoding="UTF-8"?><svg id="Layer_2" xmlns="http://www.w3.org/2000/svg" viewBox="0 0 620.2 521.28"><defs><style>.cls-1{fill:none;stroke:#fff;stroke-miterlimit:10;}</style></defs><g id="Layer_1-2"><path class="cls-1" d="M490.64,134.26c3.97,2.74,8.1,5.28,11.86,8.27,11.21,8.91,22.32,17.96,33.39,27.05,10.98,9.02,21.82,18.19,32.79,27.22,11.75,9.69,23.54,19.32,35.38,28.9,1.66,1.34,2.13,2.37.71,4.18-.5.64-.7,2.22-.26,2.79,2.47,3.23,5.11,6.33,7.82,9.36.8.89,2.02,1.41,3.04,2.1.36-.32.71-.63,1.07-.95-1.45-2.19-2.9-4.39-4.31-6.52,3.41-.56,6.69,2.55,7.32,6.73,1.17,7.77-1.97,14.32-6.3,20.18-3.66,4.96-7.89,9.68-12.59,13.64-2.64,2.22-6.69,3.02-10.25,3.73-1.22.24-3.26-1.44-4.27-2.75-3.15-4.1-5.5-8.91-9.05-12.58-7.75-8.02-16.05-15.51-24.13-23.21-.13-.12-.42-.07-1.32-.19,1.95,2.8,3.4,5.45,5.4,7.59,2.82,3.03,6.07,5.67,9.07,8.54.7.67,1.72,1.68,1.62,2.4-.46,3.38,1.5,5.48,3.4,7.76.64.77.73,1.99,1.07,3.01-1.01.05-2.13.41-3.02.11-3.16-1.07-6.25-2.37-9.37-3.58.32-.34.65-.68.97-1.03-.3-1.42-.2-3.13-.98-4.2-1.97-2.68-4.24-5.16-6.6-7.51-.61-.61-2.02-.41-3.06-.59-.14,1.03-.6,2.15-.36,3.08.83,3.28,2.2,6.44,2.84,9.75,1.56,8.16,1.55,16.37-.36,24.51-1.46,6.23-5.6,9.93-11.52,11.68-2.59.76-1.9,1.52-.8,3.23,4.5,6.99,9.69,13.75,12.8,21.34,1.8,4.37.71,10.27-.13,15.31-1.25,7.47-3.46,14.79-8.76,20.61-1.26,1.39-2.84,2.57-4.48,3.5-1.83,1.04-2.48,1.87-1.15,3.92,6.48,9.96,6.34,20.91,4.38,32.04-1.44,8.15-5.01,15.11-11.37,20.64-1.72,1.49-2.69,3.88-3.83,5.96-.29.53-.16,1.68.25,2.12,1.57,1.75,3.06,3.89,5.07,4.88,10.99,5.4,15.91,14.56,16.75,26.27.63,8.7.9,17.44-2.54,25.75-3.53,8.54-9.43,14.63-18.64,16.72-6.55,1.49-13.01,3.49-20,2.37-7.61-1.22-14.45-3.58-20.8-8.18-6.52-4.72-10.67-10.74-13.53-18.04-1.91-4.88-.4-9.35,1.14-13.79,2.38-6.87,4.93-13.68,7.71-20.4.87-2.1,2.62-3.88,4.12-5.67,2.35-2.81,4.83-5.52,7.7-8.78-1.68-1.16-3.57-2.96-5.81-3.92-7.88-3.35-16.62-14.36-15.66-22.62.6-5.11.1-10.51,1.58-15.33,1.4-4.58,4.53-8.71,7.28-12.78,1.6-2.37,3.93-4.26,6.46-6.92-8.12-1.87-4.85-8.67-6.81-13.13-.42-.95-.14-2.24-.07-3.37.22-3.84-.5-7.06-2.58-10.72-5.19-9.15-3.78-19.41,6.79-25.34,2.79-1.57,5.33-3.64,7.82-5.69,4.59-3.78,8.65-8.36,14.99-9.34.38-.06.7-.5,1.51-1.12-.96-.59-1.58-1.22-2.3-1.37-11.7-2.42-21.32-8.33-29.04-17.34-3.37-3.94-3.59-8.94-3.7-13.81-.07-2.91.22-5.86.64-8.74.78-5.36,2.33-10.39,7.08-13.76.54-.38.94-.98,1.35-1.51.26-.34.41-.76,1.05-1.99-1.98,0-3.45-.13-4.89.02-11.24,1.15-22.46,2.65-33.73,3.45-10.22.72-20.5.55-30.74,1-10.7.48-21.39,1.31-32.09,1.85-8.78.44-17.56.69-26.35,1-.3.01-.62-.21-1.06-1.13,4.58-.62,9.16-1.25,13.74-1.87,0-.25.02-.49.03-.74-.79-.18-1.59-.55-2.37-.53-14.79.53-29.58,1.3-44.37,1.6-15.02.31-30.05-.01-45.08.27-9.8.18-19.59,1.1-29.39,1.4-12.19.39-24.39.44-36.59.72-9.49.22-18.99.55-28.48.87-4.6.15-9.2.48-13.8.57-4.2.08-5.28,1.18-3.87,5.14,3.55,10.03,4.1,20.44,3.18,30.8-.44,4.97-2.65,9.95-4.87,14.54-1.12,2.32-4.05,3.77-6.16,5.61-.46-.34-.92-.69-1.38-1.03,8.03-5.6,10.81-13.36,10.69-22.31-.35-.18-.71-.36-1.06-.53-.44.75-1.02,1.45-1.3,2.26-2.06,5.82-4.88,11.1-9.37,15.51-2.2,2.16-3.8,4.97-5.47,7.61-.32.51.07,1.92.6,2.43,2.92,2.82,5.87,5.63,9.05,8.14,1.08.85,2.89,1.24,4.32,1.13,11.69-.9,23.37-1.88,35.04-3.03,6.27-.62,12.5-1.63,18.75-2.42,3.3-.42,5.07-2.05,5.1-5.55.03-3.5.07-7.03.56-10.48.22-1.56,1.55-2.96,2.37-4.44.23,1.59.71,3.2.65,4.78-.16,3.83-.71,7.64-.78,11.47-.02.91,1.21,1.85,1.86,2.78.53-.95,1.42-1.87,1.51-2.86.24-2.69-.07-5.44.28-8.11.13-.99,1.47-1.82,2.26-2.72.78.86,2.01,1.61,2.24,2.59.57,2.51.9,5.11.93,7.69.02,1.8.58,2.43,2.29,2.48,3.76.12,7.41.6,9.26,4.57.68,1.47,1.33,3,1.67,4.58.26,1.18-.15,2.5.04,3.7.1.62.86,1.13,1.32,1.69.45-.55,1.17-1.04,1.31-1.65.4-1.79-.11-4.17,2.96-3.85,2.71.29,4.15,1.97,4.05,4.55-.19,5.18-.54,10.37-1.13,15.52-.09.83-1.78,1.47-2.91,2.33.44,8.95,1.02,18.32,1.33,27.71.31,9.37.64,18.76.45,28.13-.18,9.26,1.86,18.29,1.43,27.53.44.2.88.4,1.32.59,11.23-11.8,22.47-23.6,33.7-35.4-.09-.05-.18-.1-.27-.15,1.63-1.2,3.35-2.29,4.86-3.61,3.83-3.34,7.53-6.84,11.37-10.17,2.03-1.75,2.69-3.17.11-5.06-1.53-1.12-2.73-2.7-4.07-4.07-3.66-3.75-3.89-3.78-7.94-.31-5.3,4.56-10.55,9.19-15.85,13.74-1.34,1.15-2.82,2.15-4.53,3.43-.5-3.93,5.98-4.22,3.92-7.63,1.48-.88,2.98-1.53,4.18-2.53,3.88-3.24,7.49-6.82,11.52-9.84,2.45-1.84,2.61-3.26.76-5.46-1.73-2.06-3.13-4.4-4.93-6.38-1.6-1.76-3.61-3.14-5.32-4.8-.52-.5-.65-1.4-.96-2.12.34-.29.69-.59,1.03-.88,2.03,1.74,4.19,3.36,6.07,5.25,2.63,2.63,4.98,5.54,7.62,8.15.57.56,2.21.86,2.77.47,3.38-2.4,6.61-5.01,9.84-7.62,2.86-2.32,2.79-3.28.46-6.07-3.95-4.73-7.73-9.62-11.64-14.38-.74-.9-1.79-1.54-2.48-2.82.53.1,1.23.02,1.57.33,3.54,3.31,7.05,6.64,10.5,10.04,2.24,2.21,4.24,4.68,6.59,6.76.64.56,2.43.57,3.22.08,2.38-1.48,4.5-3.36,6.76-5.03,1.74-1.29,1.98-2.66.36-4.19-1.97-1.85-4.14-3.52-5.9-5.54-1.6-1.84-2.78-4.05-4.15-6.1.42-.4.83-.8,1.25-1.2,1.56,1.2,3.27,2.25,4.65,3.62,2.23,2.23,4.34,4.6,6.33,7.05,2.2,2.71,4.46,2.58,7.02.63,1.21-.92,2.53-1.7,4.22-1.92-1.5,1.06-3,2.13-4.51,3.18-1.56,1.08-2.11,2.21-.61,3.87,3.76,4.18,7.45,8.42,11.13,12.67,1.55,1.79,2.9,3.75,4.51,5.49,3.28,3.56,5.27,3.71,9.38.96.51-.34,1.11-.56,1.67-.84.34.39.69.79,1.03,1.18-1.05.61-2.08,1.28-3.17,1.82-2.6,1.3-3.28,2.9-1.2,5.31,1.47,1.7,2.75,3.56,4.12,5.35.96,1.25,2.23,2.37,2.83,3.78.58,1.36.49,3.01.69,4.53-1.26-.88-2.8-1.54-3.74-2.69-2.28-2.79-4.35-5.76-6.37-8.74-1.54-2.27-3.23-1.69-4.86-.37-2.08,1.69-3.95,3.66-6.02,5.36-1.54,1.27-1.42,2.32-.13,3.64,3.23,3.32,6.29,6.81,9.67,9.96.86.8,2.8,1.08,4,.74,3.54-.99,6.4-.62,9.35,1.91,2.18,1.87,4.92,2.67,6.69,5.58,1.95,3.21,2.72,6.37,2.83,9.87.03,1.17-.23,2.63-.93,3.49-2.41,2.98-4.9,5.94-7.69,8.56-2.85,2.69-6.26,2.44-9.6.3-1.07-.68-3.04-1.03-4.05-.5-2.07,1.1-.71,2.85.27,3.97,3.81,4.31,7.79,8.47,11.64,12.73,2.42,2.68,4.78,5.42,7.1,8.2.52.63.73,1.51,1.13,2.38-2.55,1.34-3.59-.31-4.74-1.65-5.85-6.8-11.64-13.66-17.61-20.35-.64-.71-2.82-1.08-3.48-.57-4.83,3.71-9.53,7.6-14.04,11.68-.61.55-.44,2.89.22,3.76,2.25,2.95,4.91,5.58,7.35,8.39,2.73,3.15,5.31,6.44,8.09,9.54,2.89,3.23,3.4,3.19,6.99.57.36-.26.75-.49,1.16-.67.16-.07.41.05,1.23.17-1.1,1.18-1.93,2.13-2.83,3.01-1.63,1.59-1.49,3.28-.1,4.79,2.65,2.89,5.67,5.45,8.1,8.5,3.17,3.98,5.92,8.31,8.84,12.48-.3.24-.6.49-.89.73-.56-.67-1.14-1.33-1.68-2.01-1.55-1.94-2.94-4.03-4.7-5.75-.6-.59-2.47-.75-3.11-.25-2.3,1.77-4.28,3.96-6.46,5.9-1.97,1.75-2.3,3.41-.3,5.41.71.71,1.04,1.82,1.96,3.51-1.5-.52-2.25-.56-2.65-.95-2.73-2.67-5.16-2.51-7.82.26-1.94,2.02-4.21,3.75-6.47,5.44-1.13.84-2.54,1.3-3.83,1.93-.17-.31-.33-.62-.5-.93,3.33-2.91,6.71-5.77,9.98-8.76,2.99-2.73,2.91-3.75.09-6.61-2.13-2.16-4.01-4.58-6.27-6.59-.71-.63-2.71-.86-3.36-.34-4.04,3.23-7.92,6.66-11.72,10.16-1.82,1.68-1.63,3.47.22,5.25,2.16,2.07,4.12,4.35,5.99,7.17-1.02-.27-2.24-.28-3.02-.87-1.7-1.29-3.3-2.77-4.72-4.36-1.91-2.15-3.52-1.92-5.35.08-3.28,3.59-6.64,7.1-10.02,10.6-1.04,1.08-2.23,2.02-3.35,3.02-.24-.22-.47-.43-.71-.65,1.1-1.45,2.11-3,3.33-4.35,3.11-3.44,6.26-6.85,9.51-10.15,1.47-1.5,1.76-2.81.23-4.34-5.52-5.49-11-11.02-16.62-16.4-.65-.62-2.63-.94-3.1-.49-1.85,1.79-3.55,3.82-4.84,6.03-.48.82-.1,2.79.62,3.54,3.66,3.83,7.57,7.42,11.34,11.14,1.33,1.31,2.5,2.77,3.25,4.79-.63-.28-1.36-.42-1.86-.85-3.98-3.4-7.93-6.85-11.85-10.31-.93-.82-1.68-1.84-2.63-2.62-1.8-1.47-3.41-1.97-4.93.61-.69,1.17-2.18,1.86-3.31,2.76-.3-.3-.61-.6-.91-.91.53-.68,1-1.41,1.59-2.03,2.89-3.07,2.85-3.98-.01-7.04-1.61-1.72-3.04-3.6-4.56-5.41.32-.36.64-.71.97-1.07,1.09.72,2.29,1.32,3.25,2.18,5.59,4.98,9.23,4.34,12.44-2.46.4-.86.09-2.56-.55-3.31-2.5-2.89-5.26-5.56-7.92-8.31-1.44-1.49-2.6-1.22-3.93.31-5.26,6.04-10.59,12.01-15.95,17.96-1.25,1.39-.81,2.02.44,3.23,4.86,4.71,9.51,9.65,14.24,14.5-.22.22-.45.43-.67.65-6.92-4.91-13.84-9.81-21.48-15.23,1.07-.96,2.12-1.99,3.26-2.93,1.03-.84,2.25-1.45,3.19-2.37,1.76-1.73,3.31-3.68,5.07-5.42,2.76-2.73,2.79-3.3.17-6.01-1.21-1.25-2.27-2.66-3.39-4,.25-.26.5-.52.75-.77,1.39,1.22,3.02,2.26,4.12,3.7,1.4,1.83,2.52,2.05,4.04.31,1.7-1.96,3.51-3.82,5.15-5.83,1.21-1.49-.7-5.81-2.77-7.24-1.49-1.02-3-2.3-3.89-3.82-1.15-1.97-2.3-2.38-4.04-1.08-1.6,1.2-3.12,2.51-5.28,3.31,2.21-2.79,4.32-5.68,6.66-8.36,4.15-4.77,8.47-9.39,12.63-14.15.57-.65,1.02-1.87.82-2.66-1.28-5.18-5.77-7.78-9.35-11.07-.33-.3-1.85.1-2.31.62-3.66,4.1-7.06,8.44-10.83,12.44-1.8,1.91-4.11,3.47-6.43,4.73-2.26,1.23-3.35,2.65-3.3,5.3.08,4.4.76,9.1-.49,13.16-2.58,8.36.08,16.2.77,24.27.49,5.73.79,11.5.71,17.24-.06,4.1-.78,8.21-1.5,12.27-.19,1.06-1.28,2.51-2.26,2.8-3.93,1.16-7.95,2.04-11.98,2.77-.67.12-1.51-1.11-2.36-1.54-1.57-.79-3.54-2.34-4.74-1.91-1.4.51-2.33,2.71-3.15,4.34-.65,1.28-.61,2.91-1.26,4.19-.52,1.03-1.61,1.78-2.44,2.65-.92-1.16-2.84-2.61-2.6-3.43,1.26-4.34-.43-9.02,2.53-13.34,1.6-2.34.83-6.33,1.05-9.58.16-2.25-.01-4.53.32-6.75.52-3.41-.03-6.45-1.93-9.35-2.03-3.1.47-5.8,1-8.68.8-4.36,1.49-8.75,2.13-13.14.21-1.44,0-2.94.21-4.38.41-2.97-.93-4.31-3.78-4.2-10.71.41-21.42,1.11-32.14,1.23-5.04.05-10.29,1.93-15.72-1.15,1.26-.29,2.06-.59,2.88-.63,14.5-.81,29-1.58,43.5-2.36.34-.02.68-.04,1.02-.04,4.63.08,6.31-1.78,3.82-5.52-3.44-5.15-2.56-10.68-2.63-16-.16-11.61.85-23.24.69-34.86-.13-9.01-1.22-18.01-2.04-27-.49-5.39-1.34-10.76-1.9-16.15-.58-5.59-1.06-11.2-1.5-16.8-.23-2.97-1.11-4.24-4.64-3.93-17.44,1.54-34.91,2.77-52.38,3.99-3.05.21-3.53,1.26-2.63,4.04,4.94,15.42,2.53,30.13-5.08,44.06-1.72,3.15-4.79,5.55-7.34,8.42,1.79,1.27,3.85,2.3,5.31,3.88,3.83,4.14,6.27,9.41,5.33,14.82-2.03,11.67-2.74,23.78-8.74,34.43-1.36,2.43-3.17,4.68-5.12,6.67-1.89,1.93-2.64,3.35.18,4.94.3.17.36.75.9,1.99-1.69-.4-2.99-.33-3.7-.95-3.15-2.69-6.15-.53-8.42.85-2.04,1.24.18,2.62,1.68,3.09,4.93,1.56,8.95,4.57,11.79,8.68,6.95,10.05,9.26,20.9,4.44,32.66-1.04,2.54-1.75,5.22-2.1,8.11,5.69-4.55,9.67-10.26,12-17.08,2.5-7.35.29-14.19-2.79-20.92,4.51,4.93,5.21,11.22,6.98,17.58.56-.96,1.37-1.85,1.64-2.88,2.21-8.56.54-16.6-4.09-23.91-1.63-2.58-4.46-4.38-6.6-6.66-.86-.91-1.32-2.19-1.97-3.3.26-.3.53-.59.79-.89,1.39.9,3.05,1.55,4.12,2.74,12.41,13.72,14.6,24.19,7.3,41.54-3.43,8.14-8.59,14.64-16.95,18.51-3.14,1.45-5.62,4.49-8.13,7.06-3.8,3.89-8.09,6.79-13.41,8.19-3.3.87-6.34,1.06-9.45-.86-1.21-.75-3.02-.64-4.57-.68-6.9-.19-13.8-.42-20.15-3.59-7.77-3.88-14.23-9.55-20.26-15.64-5.3-5.36-8.83-11.82-8.46-19.64.3-6.43,1.93-12.43,7.29-16.8,2.97-2.42,5.67-5.18,8.6-7.66,1.57-1.32,1.54-2.26-.09-3.43-8.62-6.18-12.46-14.58-12.6-25.2-.08-6.16.54-11.81,3.44-17.34,1.42-2.72,1.79-6.02,2.48-9.09,1.37-6.15,4.67-10.92,10.04-14.2,2.45-1.5,2.89-2.94.53-4.9-8.89-7.38-11.48-17.6-12.18-28.39-.63-9.6.9-19.15,6.1-27.3,3.27-5.12,2.09-8.72-.66-13.07-1.97-3.11-3.87-6.44-4.85-9.94-2.09-7.43-5.86-14.53-4.57-23.65-1.68,1.15-2.71,1.64-3.44,2.4-1.41,1.46-2.65,3.08-3.98,4.62-2.36,2.73-3.08,2.71-5.53-.32-2.4,1.88-4.92,3.54-4.37,7.3.09.58-.77,1.49-1.41,1.96-1.7,1.27-3.81,2.11-5.22,3.61-4.62,4.91-10.22,6.01-16.5,4.73-4.7-.97-9.87-1.21-13.92-3.44-6.49-3.58-9.7-10.12-11.18-17.37-.17-.83-.36-1.66-.64-2.99-1.26.89-2.07,1.67-3.03,2.08-.71.3-1.62.13-2.45.17.02-.75-.23-1.66.11-2.21,1.17-1.92,2.47-3.78,3.85-5.56,3.8-4.89,7.61-9.78,11.53-14.57,4.35-5.31,8.88-10.47,13.25-15.76,2.5-3.04,4.72-6.31,7.28-9.3,3.23-3.75,6.72-7.28,10.02-10.97,4.75-5.29,9.31-10.75,14.19-15.91,2.05-2.17,4.71-3.76,7.48-5.28-7.34,8.2-14.68,16.41-22.03,24.61.28.29.56.58.84.87.66-.28,1.49-.4,1.96-.88,4.25-4.32,8.41-8.72,12.66-13.04,1.18-1.2,2.44-2.39,3.86-3.27,4.51-2.78,6.34-7.62,9.3-11.6,2.61-3.52,5.27-7.06,8.36-10.14,4.28-4.26,9.05-8.03,13.48-12.15,4.2-3.9,8.14-8.08,12.34-11.97,4.46-4.14,9.16-8.02,13.66-12.13,7.32-6.69,14.67-13.35,21.82-20.23,7.47-7.19,14.79-14.54,22.03-21.96,7.32-7.51,14.2-15.47,21.77-22.7,5.76-5.5,12.3-10.18,18.5-15.21,1.05-.85,2.12-1.67,3.2-2.48.63-.47,1.43-1.37,1.92-1.24,5.26,1.47,7.76-2.9,10.86-5.39,4.71-3.78,8.77-8.37,13.23-12.47,3.75-3.44,7.77-6.6,11.54-10.02,4.26-3.86,8.44-7.81,12.53-11.85,6-5.92,11.8-12.05,17.89-17.87,2.02-1.93,4.66-3.21,7.57-4.36-.55.8-.99,1.71-1.66,2.4-5.26,5.43-10.42,10.96-15.87,16.19-9.6,9.22-19.31,18.35-29.12,27.34-8.31,7.62-16.86,14.99-25.28,22.49-15.5,13.81-30.98,27.64-46.47,41.47-3.45,3.08-6.88,6.19-10.28,9.32-.62.56-1.08,1.29-2.02,2.43,1.25,0,1.88-.1,2.45.02.77.16,1.5.5,2.25.76-.34.85-.47,1.93-1.07,2.52-9.38,9.27-18.82,18.47-28.24,27.7-4.72,4.63-9.44,9.24-14.09,13.93-7.14,7.2-14.05,14.65-21.37,21.66-9.77,9.37-19.87,18.41-29.77,27.67-1.88,1.76-3.33,3.99-5.19,5.78-4.69,4.52-8.98,9.76-14.42,13.1-5.26,3.23-7.63,8.5-11.75,12.42-3.47,3.31-6.42,7.16-9.54,10.83-1.08,1.27-1.9,2.77-2.97,4.06-1.38,1.67-2.63,3.63-4.39,4.78-3.52,2.32-6.45,11.27-4.31,14.87.67,1.13,2,1.87,3.29,3.01.56-1.03.79-1.51,1.06-1.96.37-.61.78-1.21,1.17-1.82.64.55,1.53.97,1.87,1.67,3.02,6.34,8.08,7.5,13.06,2.49,3.44-3.47,6.29-7.53,9.4-11.32-.21-.32-.43-.63-.64-.95-.98.25-1.94.58-2.93.71-.8.1-1.63-.04-2.45-.08.1-.95.04-1.96.36-2.84.2-.55.97-.9,1.48-1.34,3.14-2.68,6.35-5.26,9.39-8.04,5.12-4.68,10.29-9.33,15.13-14.28,10.67-10.9,21.07-22.06,31.72-32.98,8.98-9.2,18.22-18.16,27.25-27.32,5.28-5.36,10.38-10.89,15.57-16.33.81-.85,1.7-1.61,2.56-2.42.38.22.76.43,1.14.65-.58,1.33-.86,2.95-1.8,3.94-2.09,2.2-4.53,4.07-6.79,6.11-1.27,1.15-2.49,2.36-3.73,3.55.23.31.46.62.69.93.66-.34,1.42-.56,1.97-1.03,6.66-5.72,13.33-11.44,19.93-17.25,6.17-5.43,12.64-10.59,18.26-16.55,7.22-7.65,13.68-16.01,20.57-23.98,3.09-3.57,6.44-6.91,9.62-10.41,5.85-6.42,11.61-12.93,17.53-19.3,2.76-2.97,5.85-5.62,8.65-8.55,1.85-1.94,3.43-4.14,5.19-6.17.68-.78,1.53-1.39,2.39-2.15.28.53.4.68.38.71-5.05,5.66-8.11,12.73-14.22,17.81-6.01,5-10.77,11.51-16.04,17.39-2.52,2.82-4.95,5.72-7.42,8.58.19.38.38.76.56,1.13,1.21-.31,2.72-.28,3.59-1,2.6-2.16,4.88-4.7,7.43-6.93,1.2-1.05,2.79-1.63,4.1-2.58,1.99-1.44,3.98-2.91,5.81-4.54,2.77-2.47,6.46-3.94,7.47-8.29.38-1.64,2.82-2.79,4.3-4.17,8.33-7.77,17.04-15.17,24.86-23.41,7.56-7.97,14.26-16.77,21.2-25.31,1.06-1.31,1.55-2.98,3.5-1.49,1.67,1.28,1.67,2.86.34,4.42-1.18,1.38-2.43,2.7-3.65,4.05.28.31.56.63.85.94,3.25-2.45,6.54-4.85,9.72-7.38,1.14-.9,1.88-2.37,3.09-3.08.77-.45,2.08.03,3.15.09-.07,1.07.3,2.61-.27,3.14-4.52,4.23-9.26,8.21-13.83,12.37-3.94,3.58-7.75,7.31-11.62,10.97l.64.76c4.16-2.51,8.49-4.79,12.44-7.6,8.23-5.86,16.23-12.05,24.43-17.96.73-.53,2.16-.07,4.04-.07.23-.36.93-1.49,1.21-1.93,9.74,5.82,18.88,11.05,27.79,16.66,9.88,6.22,19.54,12.8,29.32,19.17,3.86,2.52,7.83,4.87,11.69,7.41,1.59,1.04,3,2.36,4.47,3.56,5.74,4.7,11.57,9.31,17.2,14.14,8.05,6.89,15.82,14.11,23.96,20.9,9.59,8,19.4,15.73,29.18,23.5,6.08,4.84,12.26,9.56,18.44,14.28,5.73,4.37,11.62,8.54,17.26,13.02,8.65,6.89,17.09,14.03,25.71,20.96,6.85,5.51,13.92,10.76,20.72,16.32,6.46,5.28,12.7,10.82,19.05,16.23,3.86,3.29,7.83,6.44,11.58,9.86.99.9,1.3,2.54,1.96,3.83.68,1.33,1.11,2.94,2.13,3.9,4.36,4.09,9.03,7.86,13.34,12,3.51,3.37,7.9,3.48,12.05,3.21,5.53-.35,9.41-3.3,12.32-8.55,2.35-4.24,2.8-7.73,1.1-11.99-.29-.71.7-1.94,1.1-2.92.32.09.64.19.96.28,1.04,2.24,2.09,4.48,3.39,7.26,1.97-4.1,1.92-6.98-1.23-9.56-3.65-3-7.6-5.85-10.53-9.48-8.25-10.2-19.76-16.49-29.28-25.15-4.62-4.2-10.12-7.44-15.19-11.16-6.88-5.05-13.69-10.21-20.61-15.22-4.91-3.56-9.96-6.93-14.93-10.41-1.35-.94-2.63-1.97-4.49-2.56.48,1.26.96,2.51,1.51,3.95-2.15,1.2-3.68,1.35-4.43-1.35-.33-1.19-.66-2.42-1.27-3.47-.97-1.64-1.95-3.4-3.35-4.64-2.5-2.23-5.14-4.43-8.04-6.07-3.12-1.77-6.61-2.88-8.16-6.56-.14-.32-.83-.73-1.1-.63-2.92,1.05-4.1-1.53-5.93-2.74-1.82-1.21-3.64-2.42-5.46-3.63-.09-.06-.25-.06-.3-.14-4.37-6.44-12.7-6.95-17.96-12.04-.63-.61-1.22-1.28-1.94-2.03,1.8-2.63,3.52-2.34,5.67-.63,6.32,5.03,12.69,10.01,19.15,14.86,1.63,1.23,3.68,1.9,5.54,2.83.19-.22.37-.44.56-.66-.35-.56-.57-1.27-1.06-1.66-8.28-6.54-16.51-13.15-24.93-19.51-7.19-5.43-14.61-10.55-21.93-15.81-.46-.33-1.15-.55-1.34-1-1.99-4.6-5.98-6.23-10.32-8.07-4.71-2.01-8.82-5.42-13.23-8.15-3.68-2.28-7.53-4.31-11.1-6.74-1.5-1.03-2.36-2.95-3.73-4.24-1.66-1.56-3.47-2.54-4.58,1.49-3.13-2.68-5.98-5.14-8.86-7.57-.77-.65-1.65-1.16-2.42-1.8-2.05-1.71-4-3.54-6.11-5.17-2.91-2.26-5.98-4.32-8.89-6.59-8.53-6.64-16.97-13.41-25.53-20.01-6.25-4.82-12.7-9.38-18.94-14.21-3.28-2.54-6.18-5.55-9.46-8.08-1.91-1.47-4.29-2.3-6.34-3.61-3.97-2.54-7.81-5.32-11.82-7.8-1.35-.84-3.26-.8-4.58-1.67-1.25-.83-2.33-2.19-2.98-3.56-.38-.8.05-2.86.46-2.97,1.14-.29,2.91-.29,3.62.41,1.57,1.56,2.69,3.6,3.91,5.49.66,1.03,1.14,2.17,1.97,2.97,2.37-3.94,4.85-4.29,7.88-1.5,2.4,2.21,4.28,5,6.77,7.1,1.59,1.34,3.89,1.79,5.8,2.79,2.88,1.5,5.72,3.07,8.51,4.72,1.63.97,3.14,2.14,4.67,3.27,5.35,3.97,10.65,8.03,16.05,11.93,2.54,1.84,5.52,3.12,7.87,5.15,6.43,5.56,14.45,8.53,21.28,13.41,3.84,2.74,7.61,5.58,11.42,8.37-3.29-1.55-6.58-3.11-9.87-4.66.09,1.25.52,2.15,1.24,2.67,13.89,10,27.84,19.91,41.71,29.94,13.87,10.03,27.66,20.17,41.49,30.25,2.42,1.77,4.9,3.46,7.35,5.19.34-.34.68-.69,1.03-1.03-.62-1.05-1.01-2.39-1.91-3.09-4.16-3.24-8.45-6.31-12.7-9.44,1.05-.33,2.1-.66,3.5-1.1-.23-3.9-.47-7.89-.71-11.88.41-.04.83-.08,1.24-.12.38,2.35.82,4.7,1.12,7.06.72,5.72,1.31,11.47,8.17,13.25.23-3.33.63-6.75.67-10.16.09-7.32-.61-14.7.14-21.95.67-6.47.96-12.73-.56-19.07-1.13-4.72-1.66-9.61-3.18-14.18-.56-1.69-3.03-3.1-4.94-3.88-1.91-.78-4.2-.69-6.34-.83-6.7-.43-6.93-.17-6.64,6.72.16,3.72.82,4.19,4.64,3.54,2.78-.47,5.58-1.01,8.38-1.09,1.03-.03,2.09,1.16,3.14,1.79-.81.81-1.49,1.92-2.47,2.36-.95.43-2.21.23-3.33.2-6.45-.17-6.35-.19-5.95,6.36.14,2.37,1.08,3.16,3.33,3.14,2.13-.02,4.26.25,6.39.4,0,.35.01.71.02,1.06-2.25.46-4.55.72-6.73,1.41-5.41,1.71-6.02,1.21-4.87-4.57.82-4.16-.89-7.02-4.98-8.49-.69-.25-1.25-.83-1.87-1.25.35-.04.7-.07,1.05-.11.49-3.56,1.01-7.12,1.42-10.69.05-.45-.3-1.12-.68-1.41-1.63-1.26-7.31,1.03-7.54,3.08-.32,2.91-.47,5.85-.69,8.77-.32.05-.63.09-.95.14-.27-.92-.81-1.86-.74-2.75.14-1.91.59-3.79.93-5.68.37-2.04-.62-3.12-2.4-2.17-5.86,3.09-12.46.22-18.4,2.46-.47.18-1.22-.43-1.85-.67-.52-.19-1.07-.6-1.55-.53-4.01.57-5.91,3.15-5.48,7.33.1,1.01.3,2.01.45,3.02.51,3.35,2.5,7.51,1.21,9.87-2.54,4.64,1.46,4.5,3.07,6.1,1.23,1.22,2.33,1.3,4.33.43,3.29-1.43,7.16-2.19,10.81.62-2.94.81-5.88,1.63-9.48,2.62,1.33,1.18,2.16,2.03,3.1,2.73,11.32,8.39,22.67,16.72,33.93,25.17.76.57.9,1.99,1.33,3.01-5.74-4.35-11.48-8.7-17.23-13.03-3.51-2.64-7-5.32-10.59-7.85-6.91-4.89-13.85-9.73-20.85-14.49-1.33-.9-3.12-1.14-4.42-2.07-2.34-1.69-4.46-3.69-6.7-5.52-2.85-2.33-5.72-4.62-8.58-6.92,4.26,2.38,8.51,4.76,12.67,7.08-.18-4.62-.42-9.06-.5-13.5-.02-1.17.4-2.37.71-3.53.79-2.9,2.39-3.82,5.53-3.08,2.22.52,4.72,0,7.07-.29.96-.12,1.85-.87,2.77-1.33-.7-.58-1.4-1.16-2.12-1.72-.26-.2-.57-.34-.62-1.11h21.57c.12-.27.34-.88.64-1.45,1.33-2.52,2.79-2.38,4.82-.32,1.07,1.09,3.03,1.44,4.66,1.75.36.07,1.03-1.48,2.02-3,.82.93,1.73,1.96,2.86,3.25h18.85c.45,1.48.45,2.76,1.07,3.27,5.07,4.23,3.63,10.13,3.82,15.41.47,13.2.49,26.41.63,39.61.05,4.5-.03,9-.21,13.5-.17,4.25,1.06,7.66,4.72,10.18,1.93,1.33,3.49,3.17,5.22,4.79-3.04-1.74-6.08-3.47-9.12-5.21-.3.24-.61.48-.91.72.62,1.06.99,2.43,1.9,3.13,9.2,7.07,18.58,13.91,27.71,21.07,6.91,5.42,13.44,11.32,20.32,16.78,3.17,2.52,6.78,4.49,10.19,6.71.19-.24.38-.48.57-.73-1.98-1.89-3.83-3.94-5.96-5.65-14.19-11.35-28.45-22.6-42.63-33.95-.91-.73-1.42-1.95-2.12-2.94ZM426.87,152.63c1.05.32,2.09.63,3.69,1.11-.72-.99-1.03-1.6-1.49-2.03-8.17-7.62-16.29-15.28-24.56-22.79-3.58-3.24-7.55-6.04-11.19-9.22-3.29-2.87-6.17-6.23-9.57-8.96-7.37-5.91-14.92-11.61-22.48-17.29-7.51-5.65-15.12-11.17-22.7-16.73-2.99-2.2-6.01-4.36-9.01-6.54-6.55-4.78-13.03-9.65-19.71-14.25-1.15-.79-3.61-1.1-4.63-.4-6.63,4.47-13.05,9.24-19.49,13.98-10.08,7.41-20.22,14.75-30.15,22.34-7.68,5.87-15.4,11.76-22.55,18.25-7.93,7.2-15.23,15.11-22.84,22.66-1.12,1.11-2.51,1.96-3.77,2.94-1.18.56-2.57.89-3.51,1.73-8.8,7.79-17.56,15.61-26.24,23.52-4.58,4.18-9.01,8.54-13.44,12.88-.67.66-.98,1.68-1.45,2.53,1.2.13,1.85-.08,2.32-.49,8.03-7.09,16.29-13.96,23.98-21.41,6.27-6.08,13.79-11,18.29-18.82,2.16,1.26,3.87.28,5.51-1.09,7.27-6.08,14.55-12.15,21.82-18.23,3.43-2.87,6.85-5.77,10.27-8.65.37.24.75.48,1.12.72-.55.98-.88,2.22-1.69,2.91-9.77,8.33-19.56,16.64-29.45,24.83-13.55,11.23-27.2,22.35-40.78,33.54-.74.61-1.23,1.53-2.18,2.75,8.27-.97,106.24-81.72,107.67-88.39-.72.37-1.36.58-1.86.98-8.99,7.17-17.94,14.38-26.96,21.5-.71.56-1.87.54-2.83.79-.45-.65-.9-1.29-1.35-1.94,1.43-.87,2.98-1.6,4.29-2.63,9.71-7.7,19.39-15.45,29.06-23.21,2.46-1.98,4.78-4.13,7.27-6.07,1.71-1.34,5.75-.76,6.23,1.15.33,1.3-.62,3.37-1.66,4.48-2.37,2.55-5.06,4.82-7.77,7.02-8.16,6.64-15.4,14.1-21.56,22.68-2.23,3.1-5.51,5.45-8.55,8.37-.63-1.26-1.04-2.1-1.76-3.55-8.69,7.98-17.07,15.69-25.45,23.39.22.38.44.75.66,1.13,3.12-.25,6.26-.33,9.34-.78,7.47-1.09,14.88-2.68,22.38-3.48,10.84-1.17,21.71-2.15,32.6-2.62,11.77-.51,23.48-2.4,35.32-1.64,2.65.17,5.35-.53,8.03-.58,7.23-.14,14.46-.14,21.69-.23.59,0,1.18-.27,1.92-.46-2.72-2.94-16.13-4.07-50.43-4.53-16.93-.23-33.86-.51-50.8-.76-.02-.29-.03-.58-.05-.86,3.2-.28,6.41-.78,9.61-.8,13.09-.07,26.19,0,39.29.03,7.21.02,14.42,0,21.63.16,3.94.08,7.88.48,11.82.73,6.08.38,12.19.52,18.23,1.25,2.79.34,6.39,1.06,7.94,2.97,2.16,2.65,4.29,3.07,7.2,3.09,3.49.01,6.99.19,10.45.56,3.33.35,6.63,1.03,9.94,1.58,1.14.19,2.28.42,3.42.63-.07.36-.15.72-.22,1.08-3.31-.29-6.61-.75-9.92-.84-11.17-.31-22.35-.61-33.53-.67-10.73-.05-21.46.02-32.19.37-9.81.31-19.62.97-29.41,1.64-11.37.77-22.76,1.5-34.09,2.66-10.11,1.04-20.15,2.69-30.23,3.96-4.42.56-8.52,1.47-11.85,4.84-2.42,2.46-5.36,4.4-7.97,6.69-15.09,13.25-30.2,26.48-45.19,39.84-5.31,4.73-10.38,9.76-15.44,14.76-4.7,4.65-9.27,9.42-13.83,14.2-1.71,1.8-3.22,3.78-4.82,5.69,2.88.07,5.09-.86,7.36-1.08,11.5-1.08,20.94,6.34,25.22,16.72,3.35,8.12,4.72,9.32,11.49,8.91,21.18-1.27,42.35-2.84,63.54-3.45,23.59-.69,47.21-.4,70.81-.65,14.8-.16,29.59-.57,44.39-.79,19.07-.27,38.13-.51,57.2-.65,3.8-.03,7.6.74,11.39.64,8.8-.23,17.59-.65,26.38-1.19,11.16-.68,22.32-1.38,33.45-2.41,7.03-.65,14.02-1.49,20.46-5.14,4.56-2.58,9.69-4.22,14.65-6.03,1.91-.7,4.06-.71,6.06-1.02-.24-4.6-2.72-7.4-5.7-9.97-4.56-3.93-10.85-5.49-14.5-10.74-.74-1.06-2.61-1.26-3.8-2.09-1.95-1.35-3.98-2.69-5.61-4.39-3.4-3.53-5.92-7.88-10.44-10.36-2.43-1.33-4.87-2.9-6.79-4.86-4.42-4.52-9.32-7.94-15.57-9.47-1.47-.36-3.3-2.01-3.7-3.43-1.01-3.57-3.04-5.68-6.3-7.31-2.94-1.47-5.53-3.67-8.22-5.63-2.18-1.58-4.3-3.25-6.41-4.94-1.92-1.54-3.79-3.14-5.68-4.71l-.05.06ZM141.55,374.3c.29.13.58.26.88.39.92-.3,2.09-.34,2.71-.95,3.34-3.3,7.2-6.32,9.6-10.23,2.75-4.48,3.88-9.84,4.14-15.25.07-1.41.57-2.82.96-4.2,1.09-3.84.87-7.49-.81-11.2-2.01-4.46-5.21-7.83-8.99-10.71-4.57-3.49-9.08-7.24-15.53-5.91-.63.13-1.36-.03-2.01-.2-9.98-2.6-17.63,2.89-24.65,8.2-10.58,8.01-9.05,24.62-5.14,32.9,3.73,7.89,9.73,14.83,18.16,18.51,2.67,1.16,6.32,1.69,9.03.87,8.47-2.58,12.81-9.18,15.04-17.48,1.98-7.39.79-12.14-4.44-16.01-1.03-.77-2.25-1.29-3.37-1.93.92-.71,1.96-1.02,2.61-.65,1.43.81,2.63,2.01,3.98,2.97.67.48,1.61,1.25,2.15,1.07.61-.21,1.23-1.33,1.25-2.08.05-1.67-.22-3.36-.45-5.03-.34-2.5-.76-4.99-1.14-7.49.32,0,.65.01.97.02,5.37,15.36,2.95,30.1-4.94,44.4ZM134.76,245.29c-1.52-.32-3.01-.39-4.3-.94-3.46-1.49-5.92-.31-8.45,2.18-2.8,2.76-6.09,5.01-9.09,7.57-4.66,3.97-8.88,8.34-11.27,14.11-.89,2.14-2.33,4.68.18,6.49,3.43,2.48,7.19,4.5,10.52,6.55,2.04-4.16,4.09-8.14,5.95-12.2,1.93-4.23,4.2-7.97,9.62-8.36-.29,1.31-.86,2.42-1.72,3.19-5.32,4.76-7.88,10.92-9.01,17.77-.18,1.12-.09,2.79.6,3.45,4.84,4.62,8.75,11.13,17.17,9.15.56-.13,1.3.49,1.95.77-.48.49-.87,1.23-1.45,1.42-4.22,1.44-4.23,1.41-2.7,5.65.23.64.59,1.25.69,1.91.53,3.8,2.98,3.99,5.97,3.29.87-.21,1.78-.27,2.65-.51,4.91-1.31,8.76-3.36,11.27-8.54,5.24-10.79,6.78-22.16,7.3-33.84.2-4.57.21-9.16-6.81-9.51,2.88-2.64,2.05-4.41,0-6.07-.5-.41-.92-1.05-1.14-1.66-.88-2.47-2.62-2.63-4.9-2.25-2.46.41-5,.41-7.5.59-.03-.26-.05-.51-.08-.77,2.56-.58,5.13-1.16,8.38-1.89-3.23-3.37-6.32-5.56-10.49-5.57-2.14,0-3.74.43-5.13,2.97-1.71,3.14,2.04,2.78,1.79,5.06ZM525.82,252.41c3.02-3.14,3.12-3.34-.12-5.39-3.42-2.17-7.02-4.07-10.64-5.91-.93-.47-2.22-.51-3.29-.35-5.26.79-10.56,1.46-15.73,2.68-4.1.97-7.7,3.13-10.68,7.32h4.92c-1.8,1.68-2.81,2.81-4,3.7-4.99,3.74-9.02,15.82-5.64,23.22,4.49,9.86,18.22,20.46,32.01,19.21,8.36-.76,14.51-4.34,18.86-10.86,3.98-5.96,5.06-13.03,3.85-20.09-.98-5.7-.23-12.91-9.54-13.54ZM128.74,450.57c0-.35.01-.7.02-1.04-4.59-.74-9.16-1.71-13.78-2.09-1.6-.13-3.78.77-4.9,1.96-3.93,4.15-5.44,9.63-6.18,15.02-1.94,14.04-.81,27.69,6.58,40.34,3.57,6.11,9.4,7.49,15.4,7.27,4.46-.17,8.06-3.42,11.13-7.12-3.01-2.27-5.68-4.28-8.6-6.48,6.17-2.52,7.09-8.78,11.63-12.36.44,4.4-1.98,7.2-3.77,10.23-.78,1.32-2.83,2.64-.36,4.12,1.98,1.18,4.35,3.05,6.19.11,2.4-3.85,4.72-7.83,6.41-12.02,1.31-3.25,1.28-7.02,2.41-10.36,1.57-4.62-.28-8.91-.75-13.32-.13-1.24-1.51-2.48-2.57-3.44-1.67-1.51-3.54-2.81-5.34-4.17-4.91-3.71-10.25-5.09-16.24-2.99-2.27.8-4.57,1.51-7.2,2.38,2.26-4.07,6.77-3.98,9.91-6.03ZM120.41,388.25c-.94.41-1.79.63-2.45,1.11-2.09,1.53-4.01,3.3-6.16,4.73-6.26,4.18-11.02,9.82-14.19,16.44-4.37,9.14-4.92,16.37,3.33,23.52,1.96,1.7,3.86,3.52,6,4.96,2.73,1.84,5.51,3.25,9.14,1.71,7.28-3.08,14.62-6.11,22.81-5.66.86.05,1.91-.15,2.6-.62,6.25-4.26,11.04-9.82,12.67-17.28,1.69-7.7-1.4-14.51-6.08-20.38-2.78-3.48-6.4-6.31-9.78-9.28-.64-.57-1.91-.71-2.85-.62-6.51.64-11.92,3.36-15.77,8.78-1.98,2.79-3.81,5.67-5.71,8.51-3.24,4.82-5.25,10.08-4.62,15.94.84,7.79,6.8,13.76,14.74,9.87,2.07-1.01,4.3-1.68,6.46-2.51.13.3.27.6.4.9-1.88,1.18-3.62,2.86-5.67,3.44-7.65,2.19-11.37,2.39-15.78-3.8-3.66-5.13-3.78-10.79-2.57-16.12.95-4.16,3.48-8.64,6.67-11.41,3.62-3.15,4.13-7.76,7.18-10.92.07-.08-.12-.41-.4-1.3ZM507,442.08c.13.24.26.48.4.72-.32.29-.62.61-.96.88-6.76,5.42-13.55,10.83-20.29,16.27-2.41,1.94-4.12,4.32-3.38,7.62.96,4.29,2.24,8.38,5.21,11.89,4.39,5.18,9.86,8.5,16.31,10.07,5.75,1.4,10.88.12,16.34-2.87,5.45-2.98,10.82-9.76,10.34-16.06-.12-1.55-.17-3.27.37-4.67,2.25-5.88,1.3-11.75.58-17.73-.51-4.22-2.71-6.95-6.32-8.48-2.12-.9-4.57-1.1-6.89-1.38-4.25-.51-8.59-.5-12.75-1.37-2.97-.62-5.44-.05-7.65,1.49-2.95,2.04-5.77,4.35-8.35,6.84-2.65,2.55-4.66,5.61-5.06,9.79,7.65-4.5,14.88-8.76,22.12-13.02ZM513.82,428.28c5.12-.07,9.59-1.6,12.71-6.08,1-1.44,1.33-3.34,2.14-4.94,6.54-12.87,4.35-25.4-1.69-37.65-1.35-2.74-3.67-4-7.34-2.88-3.69,1.13-7.76,1.04-11.67,1.4-1.57.14-3.16.18-4.73.04-1.22-.1-2.57-.28-3.58-.89-2.84-1.71-5.01-1.61-6.56,1.33-1.97,3.75-4.37,7.7-4.79,11.76-.91,8.71-1.54,17.63-.67,26.3,1.05,10.4,4.13,13.68,15.13,13.57,2.69-.03,5.39-.33,8.06-.7,1.03-.14,1.98-.83,2.97-1.28ZM521.03,311.4c-2.86-3.48-10.69-4.63-14.37-1.35-4.27,3.8-9.93,6.34-12.29,12.13-.63,1.56-1.19,3.26-2.23,4.52-4.18,5.03-4.86,10.84-4.81,17.11.05,6.19,2.51,11.28,7.14,14.66,4.09,2.98,7.94,7.87,14.58,4.9,3.29-1.47,7.9-.51,10.73-2.41,5.04-3.4,9.79-7.65,13.56-12.42,5.51-6.97,5.34-14.81,1.6-22.95-3.25-7.08-7.71-10.58-15.49-10.57-2.81,0-5.61,0-8.42,0-.05-.49-.11-.97-.16-1.46,3.27-.69,6.54-1.39,10.15-2.15ZM235.56,361.83c-1.41-.7-2.12-1.05-2.93-1.44-1.18,13.8-.67,26.08,1.6,29.75.57-3.95,1.04-7.27,1.51-10.59.22,0,.44.02.66.03v15.21c-1.31-.19-2.23-.32-3.41-.49.47,8.73.92,17.13,1.38,25.54h1.23c.15-2.32.3-4.64.46-7.11.21.36.39.53.41.72,1.42,15.86,2.79,31.72,4.25,47.57.56,6.15.12,12.55,3.76,18.01.61.92,2.06,1.3,3.12,1.92.33-1.1,1.01-2.21.95-3.28-.83-15.89-2.08-31.76-2.58-47.66-.62-19.87-.61-39.75-.95-59.63-.18-10.83-.47-21.65-.79-32.47-.08-2.56-.57-5.11-.76-7.67-.28-3.88-.44-7.76-.7-11.64-.03-.38-.38-.84-.71-1.08-1.98-1.43-7.27.66-7.44,3.15-.38,5.5-.47,11.02-.59,16.54-.07,3.49-.05,6.98.06,10.46.07,2.18.35,4.36.58,6.54.24,2.32.53,4.64.87,7.61ZM82.44,248.84c-.2-.2-.4-.39-.61-.59,2.44-2.55,4.89-5.08,7.31-7.64,3.22-3.4,6.93-6.36,8.02-11.4.45-2.05,1.81-4.12,3.28-5.69,3.01-3.19,6.39-6.02,9.56-9.05.39-.37.47-1.07.7-1.62-.25-.26-.51-.52-.76-.78-1.36,1.09-2.84,2.07-4.06,3.3-4.82,4.87-9.5,9.88-14.34,14.74-11.22,11.25-22.9,22.07-33.63,33.77-7.74,8.44-14.26,17.99-21.28,27.08-.54.69-.68,1.69-1.34,3.44,5.14-.85,9.49-1.22,13.6-2.42,1.83-.54,4.66-1.65,3.85-5.44-1.56.67-2.89,1.24-4.22,1.81-.1-.13-.2-.26-.3-.4,6.09-6.45,12.18-12.89,18.07-19.13-.42-.05-1.34-.15-2.96-.34,1.53-1.96,2.71-3.46,4.05-5.17.6,1.29,1,2.14,1.39,3,7.02-3.24,36.78-33.92,38.42-40.14-8.64,7.9-16.72,15.28-24.8,22.66ZM108.42,309.99c-3.84-3.46-6.93-2.45-10.03-.11-8.84,6.66-13.94,15.94-17.25,26.1-3.01,9.24-3.63,18.72-.43,28.3,2.98,8.92,7.59,15.81,17.44,17.87,1.41.3,2.78.94,4.08,1.6,2.79,1.42,4.84.45,6.39-1.19-2.68-2.58-5.31-4.82-7.6-7.36-4.03-4.49-8.47-8.79-11.55-13.89-2.01-3.34-2.06-7.92-2.73-11.99-1.19-7.19,1.83-13.39,5.9-18.74,3.21-4.22,7.79-7.41,11.77-11.05,1.22-1.12,2.49-2.18,3.85-3.37-.78-.57-1.21-.88-1.94-1.41,3.98-.92,8.02-.62,11.13-4.23-3.1-1.86-5.76-3.45-9.01-5.4v4.88ZM478.56,475.52c-.31.02-.61.04-.92.06-.12,1.14-.4,2.28-.33,3.41.72,11.23,8.49,17.53,17.11,22.36,9.8,5.5,20.72,5,31.28,2.07,12.29-3.4,21.23-15.18,21.63-27.87.26-8.25.09-16.49-3.74-24.13-1.78-3.56-3.86-6.84-8.18-7.89.28,1.39.98,2.44,1.62,3.53,2.08,3.56,4.77,6.92,6.08,10.75,3.99,11.61-2.92,25.49-13.27,30.66-5.7,2.85-11.43,5.64-17.15,8.43-.28.14-.66.15-.99.13-5.33-.34-10.65-.98-15.98-.97-6.96.02-13.98-6.65-15.32-13.19-.51-2.47-1.23-4.9-1.85-7.35ZM324.36,466.63c.27.25.53.51.8.76-.15.41-.19.91-.46,1.2-2.9,3.13-5.75,6.33-8.81,9.29-1.64,1.58-2.1,2.71-.18,4.37,2.22,1.91,4.15,4.18,6.45,5.97.69.54,2.6.47,3.28-.1,3.36-2.82,6.54-5.87,9.7-8.91,3.78-3.64,3.59-4.37-.29-8.25-4.21-4.2-8.25-8.58-12.2-13.02-2.58-2.9-4.45-3.25-7.39-.53-2.47,2.29-4.65,4.9-7.11,7.2-4.7,4.39-4.77,5.38-.19,9.86,5.15,5.04,5.01,4.93,9.42-.84,1.98-2.6,4.64-4.69,6.99-7.01ZM103.3,453.73c-2.26.41-4.18.51-5.9,1.14-1.88.69-4.15,1.43-5.27,2.89-7.99,10.39-10.26,26.32-.32,36.98,3.24,3.48,6.59,7.04,12.89,6.94-7.13-15.86-5.72-31.58-1.4-47.95ZM112.2,515.03c.24-.48.47-.96.71-1.44-1.32-1.07-2.47-2.6-3.98-3.14-6.56-2.36-11.42-7.16-16.73-11.28-7.91-6.13-9.65-15.03-9.62-24.2.01-5.27,2.24-10.24,5.62-14.53.61-.77.43-2.16.61-3.26-1.1.34-2.57.34-3.23,1.07-3.48,3.82-6.79,7.81-10.1,11.78-4.36,5.25-4.03,11.3-1.72,16.98,5.5,13.56,16.94,20.88,29.66,26.44,2.65,1.16,5.84,1.09,8.79,1.58ZM352.18,463.81c-.59-.86-1.05-1.59-1.58-2.27-1.39-1.77-2.76-3.56-4.22-5.27-3.95-4.59-7.89-9.19-12.02-13.62-.59-.63-2.63-.86-3.27-.35-3.16,2.52-6.18,5.25-8.99,8.16-.6.62-.61,2.77-.03,3.4,5.7,6.1,11.6,12.01,17.41,18,1.37,1.41,2.73,1.42,4.16.2,2.3-1.97,4.61-3.94,6.86-5.98.63-.57,1.04-1.39,1.69-2.27ZM524.74,301.3c.07.22.13.44.2.67,3.22,0,6.48.29,9.66-.06,7.25-.79,12.44-5,14.89-11.59,1.51-4.06,1.43-8.76,1.78-13.19.61-7.66-2.03-14.7-5.01-21.51-1.36-3.09-4-5.63-6.05-8.41-.41.21-.82.41-1.23.62.12,1.24.04,2.53.38,3.7,2.72,9.21,3.27,18.64,3.04,28.16-.24,9.35-4.31,16.2-13.01,20.02-1.49.65-3.09,1.07-4.64,1.59ZM96.56,306.81c-10.78-12.69-12.7-26.82-11.14-43.1-2.11,1.84-3.76,2.98-5,4.46-1.21,1.45-1.67,3.65-3.06,4.81-3.35,2.8-3.32,6.24-3.21,10.11.24,8.27,4.36,15.33,6.65,22.95.32,1.07,1.47,1.89,2.23,2.82.28-.16.55-.31.83-.47-.26-1.27-.45-2.56-.8-3.81-1.38-5-2.87-9.97-4.17-14.99-.45-1.76-.81-3.79,2.79-5.02-2.27,11.13,5.16,19.36,6.42,29.42,4.48-1.09,4.3-3.72,2.5-7.18h5.94ZM337.64,408.08c-.7-1.06-1.13-1.85-1.7-2.52-2.81-3.32-5.58-6.68-8.58-9.83-.53-.55-2.49-.61-3.08-.09-4.69,4.06-9.26,8.27-13.73,12.57-.6.58-.96,2.36-.55,2.87,2.91,3.59,6.03,7.01,9.13,10.44,1.11,1.23,2.12,1.1,3.43-.06,4.29-3.82,8.74-7.46,13.1-11.2.71-.61,1.28-1.4,1.98-2.17ZM98.55,446.97c-.9-1.75-1.59-3.56-2.67-5.09-5.31-7.52-11.98-14.13-14.93-23.21-.28-.85-2.19-1.68-3.28-1.6-.86.06-1.84,1.42-2.34,2.42-.48.96-.44,2.19-.55,3.31-1.03,10.43,1.77,19.39,10.11,26.2,3.35,2.73,6.43,2.81,9.91.4,1.09-.76,2.23-1.44,3.76-2.42ZM503.56,200.4c.19-.2.38-.4.57-.61-.78-.84-1.47-1.79-2.35-2.52-4.17-3.44-8.35-6.86-12.59-10.2-6.65-5.22-13.34-10.4-20.08-15.5-.78-.59-2.32-1.15-2.98-.78-2.69,1.49-4.52.11-6.44-1.37-5.09-3.92-10.17-7.85-15.29-11.72-.57-.43-1.39-.54-2.31-.88,3.4,3.68,6.31,7.27,9.67,10.35,4.31,3.95,9,7.51,13.52,11.23,1.74,1.43,3.32,3.18,5.28,4.21,1.95,1.03,4.74.79,6.3,2.11,1.71,1.45,1.99,4.59,3.69,6.07,6.19,5.4,12.68,10.46,19.14,15.55.75.59,1.99.56,3.01.82-.26-1.08-.18-2.49-.85-3.18-3.62-3.77-7.19-7.65-11.22-10.95-5.99-4.92-12.36-9.38-18.54-14.06-.93-.7-1.73-1.57-2.6-2.36.32-.37.64-.75.96-1.12,11.03,8.3,22.05,16.6,33.08,24.9ZM322.79,392.73c-.38-.8-.54-1.53-.98-2-2.76-2.96-5.52-5.93-8.44-8.71-.42-.4-2.03-.16-2.61.33-4.3,3.64-8.48,7.44-12.72,11.16-1.77,1.55-2.03,3.17-.41,4.96,2.18,2.43,4.35,4.87,6.56,7.26,1.83,1.98,3.66,1.82,5.56-.01,3.89-3.76,7.84-7.44,11.74-11.19.53-.51.89-1.22,1.3-1.79ZM356.06,394.25c-.74-1.11-1.01-1.74-1.47-2.16-3.54-3.18-6.98-6.51-10.78-9.34-1.01-.76-3.58-.55-4.74.23-3.04,2.05-5.72,4.65-8.52,7.07-1.82,1.57-2.24,3.21-.42,5.19,2.51,2.74,4.88,5.6,7.3,8.41,2.41,2.79,3.11,2.69,6.09.4,2.42-1.86,5.29-3.13,7.73-4.96,1.79-1.35,3.2-3.19,4.81-4.84ZM303.07,438.78c-.41-.71-.68-1.47-1.18-2.01-2.29-2.46-4.63-4.86-6.96-7.28-2.81-2.91-3.13-2.96-5.73.11-3.61,4.26-7.19,8.55-10.58,12.98-.43.57-.06,2.37.55,3.01,2.41,2.51,4.99,4.87,7.67,7.08.6.49,2.3.59,2.79.12,4.15-3.87,8.15-7.89,12.15-11.91.53-.53.81-1.3,1.29-2.1ZM302.05,467.68c4.32-4.65,8.35-9.03,12.44-13.34,1.46-1.54,1.5-2.7-.1-4.26-2.5-2.44-4.61-5.28-7.18-7.63-.76-.69-3.07-.91-3.69-.32-4.59,4.42-8.92,9.09-13.13,13.47,4.18,4.33,7.9,8.19,11.66,12.08ZM333.22,436.05c.44-.28.85-.47,1.17-.75,4.5-3.92,9.05-7.79,13.46-11.81,1.6-1.46,1.95-3.13-.08-4.88-1.95-1.68-3.71-3.62-5.34-5.62-1.6-1.97-3.2-1.89-4.95-.47-4.38,3.54-8.67,7.2-13.11,10.66-1.61,1.25-1.54,2.3-.36,3.63,2.46,2.77,4.91,5.56,7.42,8.28.42.45,1.15.62,1.79.95ZM106.19,321.74c-9.49,2.93-18.88,19.99-17.15,30.66,1.93,11.93,15.82,25.54,26.57,25.45-4.45-2.97-8.63-5.52-12.55-8.42-4.37-3.24-7.85-8.81-7.96-12.28,1.34,1.67,2.45,3.23,3.74,4.62,1.16,1.25,2.51,2.33,3.78,3.48.23-.21.47-.43.7-.64-7.77-14.8-10.37-29.27,2.86-42.87ZM304.32,410.17c-.39-.78-.58-1.32-.9-1.76-1.83-2.53-3.66-5.05-5.54-7.54-2-2.64-4.02-2.89-6.54-.61-2.91,2.63-5.63,5.47-8.49,8.17-1.43,1.35-1.52,2.63-.15,4.06,2.33,2.44,4.7,4.85,6.92,7.4,2.01,2.31,3.7,1.86,5.6-.12,2.32-2.42,4.81-4.66,7.17-7.05.75-.76,1.3-1.72,1.92-2.56ZM306.99,412.59c-.95.52-1.76.76-2.29,1.28-3.05,3.02-6.09,6.06-8.97,9.23-.45.5-.47,2.06-.04,2.58,2.51,3.02,5.16,5.95,7.89,8.78,1.78,1.84,3.48,1.44,5.19-.44,2.25-2.45,4.6-4.85,7.16-6.96,1.81-1.49,2.14-2.61.59-4.45-1.86-2.21-3.35-4.72-5.27-6.86-1.16-1.29-2.83-2.12-4.25-3.15ZM339.01,377.61c-2.26-2.79-4.31-5.43-6.49-7.96-2.51-2.9-4.75-1.67-7.09.46-2.56,2.34-5.15,4.71-8.03,6.6-2.55,1.67-2.15,2.92-.35,4.7,2.16,2.14,4.29,4.32,6.27,6.62,1.87,2.17,3.47,1.86,5.37.07,2.37-2.23,4.95-4.23,7.32-6.46,1-.94,1.68-2.23,3-4.02ZM237.2,444.14l-1.31.15c-.17.61-.5,1.22-.49,1.82.05,5.08.47,10.18.17,15.24-.24,4.08-1.66,8.08-1.98,12.16-.49,6.3-1.09,12.7-.46,18.93.34,3.32,2.87,6.6,4.97,9.49,1.17,1.61,2.96.94,3.18-1.33.17-1.79.18-3.61.06-5.4-.98-14.14-1.99-28.29-3.05-42.43-.22-2.89-.71-5.76-1.08-8.64ZM544.23,355.79c1.26-3.02,2.16-5.24,3.11-7.44,3.41-7.88,3.02-16.02.15-23.7-2.1-5.61-5.83-10.63-9-15.82-.73-1.2-1.96-2.34-3.22-2.91-1.36-.62-3.04-.53-5.03-.82.44,1.24.45,1.52.6,1.64,7.9,6.77,9.82,15.97,10.69,25.7.67,7.46,1.71,14.89,2.7,23.34ZM329.49,437.98c-.89-1.5-1.59-3.04-2.62-4.31-1.34-1.65-3-3.05-4.43-4.64-1.59-1.77-3.19-1.97-4.91-.26-2.62,2.62-5.15,5.35-7.87,7.86-1.78,1.64-1.61,3.01-.05,4.56,2.23,2.22,4.32,4.62,6.76,6.59.87.7,3.03.96,3.81.37,2.76-2.09,5.24-4.57,7.69-7.04.73-.74,1.01-1.92,1.62-3.14ZM313.39,376.15c.86-.51,1.91-.94,2.72-1.65,1.44-1.26,2.62-2.82,4.1-4.03,6.67-5.41,6.72-5.69.95-11.92-.08-.08-.17-.16-.23-.25-1.68-2.44-3.76-2.72-6.08-1.02-3.36,2.46-6.75,4.89-9.92,7.58-.64.55-.88,2.67-.37,3.28,2.15,2.59,4.63,4.9,7.04,7.26.37.36,1.01.43,1.79.74ZM92.92,262.14c-3.11,1.11-4.04,3.35-4.41,5.87-1.61,11.01.24,21.37,6.32,30.76,1.72,2.65,4.07,4.94,7.6,5.14,2.12.12,2.72-.97,1.72-2.75-.54-.96-1.43-1.75-2.2-2.57-3.69-3.92-5.82-8.53-6.34-13.9-.66-6.87-1.4-13.74-2.13-20.61-.06-.53-.29-1.04-.56-1.94ZM97.1,184.09c9.33-2.35,53.11-47.97,55.55-53.92-18.98,17.49-38.24,34.67-55.55,53.92ZM335.94,69.91c-.3.36-.6.72-.89,1.09,1.22,1.05,2.35,2.27,3.69,3.14,5.38,3.49,10.88,6.79,16.23,10.32,2.23,1.47,4.2,3.33,6.27,5.05,3.65,3.02,6.85,7.19,11.04,8.79,4.29,1.65,7.93,3.33,11.39,6.51,6.51,5.98,13.66,11.27,20.59,16.79,1.22.97,2.65,1.67,3.98,2.5l.79-1.24c-22.61-20.04-47.07-37.56-73.08-52.94ZM89.4,428.1c-2.7-8.26-2.54-19.75,1.4-27.49,1.93-3.79,5.17-6.9,7.67-10.43.58-.82.53-2.08.77-3.14-1.25-.11-2.51-.37-3.74-.26-.52.05-1.02.84-1.45,1.36-4.21,5.13-8.43,10.25-12.57,15.44-.51.64-.82,1.69-.76,2.51.63,8.22,2.58,15.94,8.67,22.01ZM353.61,486.09c.74-.08,1.21.02,1.39-.16,2.83-2.94,5.66-5.87,8.35-8.93.3-.34,0-1.62-.43-2.13-1.77-2.17-3.59-4.32-5.6-6.27-1.6-1.54-3.51-2.58-5.66-.67-2.18,1.94-4.58,3.7-6.46,5.89-.71.83-.85,3.1-.22,3.96,1.77,2.42,4.04,4.48,6.19,6.59.77.76,1.78,1.27,2.43,1.72ZM342.32,375.38c.37-.08.65-.06.8-.19,2.8-2.4,5.62-4.77,8.32-7.29.36-.34.36-1.65,0-2.09-2.4-2.95-4.89-5.85-7.51-8.6-.46-.48-2.01-.61-2.55-.22-2.59,1.89-5.11,3.91-7.4,6.14-.64.63-.97,2.61-.5,3.18,2.44,2.94,5.18,5.64,7.84,8.4.3.31.72.49,1,.67ZM156.45,244.01c.34-.29.69-.58,1.03-.86-1.24-1.99-2.26-4.17-3.75-5.95-4.95-5.93-10.71-10.85-19.11-8.57-5.03,1.37-9.87,3.67-14.51,6.1-1.8.94-2.8,3.39-4.16,5.15.28.35.56.7.84,1.05,1.88-.77,3.85-1.38,5.64-2.34,3.86-2.08,7.58-4.43,11.47-6.44,1.03-.53,3.49-.56,3.61-.23.9,2.59,3.27,1.96,4.99,2.76,2.71,1.25,5.31,2.82,7.79,4.49,2.16,1.45,4.11,3.22,6.16,4.84ZM101.75,278.64c-.28.24-.55.48-.83.72.35.77.63,1.58,1.05,2.3,5.29,9.13,12.28,16.65,21.46,21.94,1.53.88,3.63.78,5.47,1.14-.91-2.04-1.76-4.11-2.76-6.1-.21-.41-.93-.64-1.46-.79-4.96-1.39-7.86-5.24-10.34-9.23-3.09-4.98-7.98-7.2-12.58-9.97ZM329.86,362.21c.79-.38,1.25-.51,1.59-.78,2.75-2.14,5.52-4.27,8.19-6.5.4-.33.69-1.52.45-1.78-2.49-2.71-4.81-5.78-7.86-7.66-.97-.6-3.96,2.04-6,3.23-.87.51-1.7,1.1-2.55,1.64-1.91,1.2-2.41,2.47-.62,4.33,1.55,1.6,2.79,3.51,4.26,5.21.77.88,1.74,1.59,2.53,2.3ZM243.04,494.22c0,2.89-.28,4.98.1,6.93.26,1.35,1.66,3.68,2.17,3.59,2.3-.44,4.78-1.2,6.54-2.64.92-.75.92-3.23.6-4.78-.74-3.68-1.95-7.26-2.9-10.91-.82-3.16-3.79-1.63-5.59-2.65-.53,1.19-1.49,2.37-1.51,3.57-.04,2.58.41,5.16.58,6.89ZM534.97,413.26c.27.06.54.11.8.17.24-.22.59-.39.71-.66,2.49-5.67,4.28-11.54,4.91-17.74.84-8.18-.56-15.78-5.68-22.38-.55-.71-2.04-.7-3.09-1.02.17,1.04.1,2.21.57,3.1.93,1.76,2.9,3.27,3.12,5.04.59,4.78.83,9.66.58,14.46-.33,6.36-1.25,12.69-1.92,19.04ZM157.46,407.26c3.97-7.61,1.87-16.86-3.97-20.97-.54-.38-1.12-.73-1.57-1.2-3.24-3.37-5.27-3.42-9.25.06,8.35,4.7,11.3,13.17,14.79,22.11ZM91.16,413.29c2.52-3.69,4.49-7.27,7.12-10.27,3.02-3.44,6.66-6.32,9.93-9.55,1.33-1.31,2.39-2.89,3.57-4.35-.24-.45-.49-.89-.73-1.34-2.91.37-6.63-.27-8.58,1.3-7.52,6.03-10.54,14.53-11.32,24.21ZM131.87,213.39c17.95-11.37,31.65-27.58,47.26-41.62-16.92,12.53-32.61,26.47-47.26,41.62ZM520.34,239.93c3.49,2.55,6.61,4.89,9.8,7.12.41.29,1.38.29,1.76,0,1.13-.85.67-5.81-.45-6.8-1.19-1.07-2.4-2.15-3.4-3.4-2.29-2.86-11.12-4.69-14.14-2.72-.67.43-1.4,1.38-1.38,2.07.01.5,1.18,1.29,1.9,1.38,2.61.31,5.25.39,7.93.55-.62.55-1.29,1.16-2.02,1.8ZM563.26,199.73c.34-.34.68-.68,1.02-1.02-.81-.92-1.48-2.02-2.44-2.74-10.73-8.02-21.49-16.02-32.32-23.91-.82-.6-2.23-.39-3.36-.56-.19.48-.39.97-.58,1.45,12.56,8.93,25.11,17.85,37.67,26.78ZM485.88,353.92c-.41.32-.82.64-1.23.96-.91,5.8,2.36,10.1,5.51,14.39.3.41,1.53.55,2.07.28,1.76-.87,3.39-1.99,4.67-2.77-3.72-4.34-7.37-8.6-11.02-12.86ZM227.42,339.87l1.22-.08c.32-1.25.83-2.49.93-3.75.36-4.49.62-8.99.84-13.49.06-1.32.84-3.22-1.63-3.25-2.28-.03-3.66,1-3.47,3.5.34,4.5.61,9,1.04,13.49.12,1.22.7,2.39,1.06,3.59ZM488.21,377.9c-2.93,3.77-5.8,7.44-5.71,12.57.09,5.15-.31,10.32-.24,15.47.05,3.22.58,6.44.89,9.66.95-12.74-.04-25.56,5.05-37.7ZM121.13,209.65c-.38-.4-.77-.8-1.15-1.2-7.17,5.93-14.09,12.13-20.62,18.74.43.47.87.94,1.3,1.41,8.24-4.76,13.48-12.82,20.47-18.95ZM478.39,392.78c-3.81,9.37-3.15,20.89,1.85,24.36-.63-8.33-1.25-16.42-1.85-24.36ZM118.83,306.01c-5.66-5.6-11.39-11.28-17.03-16.86-.97,5.36,9.68,16.01,17.03,16.86ZM119.5,441.95c5.93,2.01,17.17-1.51,18.55-5.43-6.49.19-12.17,2.37-18.55,5.43ZM349.06,403.62c-6.86,3.55-7.18,5.11-2.75,9.97,1.36,1.49,2.74,2.97,4.21,4.36.46.43,1.23.52,1.86.77.36-.2.72-.41,1.08-.61-5.2-3.81-6.3-8.71-4.41-14.48ZM531.25,224.83c4.21,5.73,16.27,15.88,17.85,15.61-4.54-6.18-9.51-12.12-17.85-15.61ZM496.41,491.55c-4.17-3.67-7.94-6.99-11.96-10.53-.23,6.13,5.79,11.49,11.96,10.53ZM481.46,340.56c1.11-6.05,2.18-11.85,3.23-17.57-4.76,2.92-6.66,12.56-3.23,17.57ZM153.62,484.2c-2.81,6.17-5.3,11.63-7.78,17.08,5.07-2.79,9.12-11.82,7.78-17.08ZM112.76,231.22c3.4,1.03,12.76-6.19,14.1-10.59-4.7,3.53-9.4,7.06-14.1,10.59ZM74.84,208.54c.37.41.73.82,1.1,1.23,5.56-2.83,8.54-8.24,12.48-12.7-.29-.3-.58-.59-.87-.89-4.24,4.12-8.47,8.24-12.71,12.36ZM537.46,474.11c.33.08.66.16,1,.24,3.16-2.65,4.26-11.17,1.2-13.67-.77,4.69-1.48,9.06-2.2,13.43ZM538.46,260.86c-.22-5.28-.81-9.6-3.42-13.69-2.29,2.93-.81,8.79,3.42,13.69ZM123.22,314.28c-4.05-2.35-11.31.71-14.08,5.66,4.77-1.92,9.15-3.68,14.08-5.66ZM78.69,261.9c-3.26,3.19-6.52,6.39-9.78,9.58,4.52-.52,10.26-5.83,9.78-9.58ZM539.95,353.1c-2.74,4.39-5.09,8.18-7.74,12.43,4.92-1.21,8.44-6.89,7.74-12.43ZM104.83,443.39c-3.65-2.83-6.88-5.33-10.88-8.43q6.43,10.6,10.88,8.43ZM90.63,254.47c4.07.41,7.78-3.89,7.52-8.53-2.87,3.25-5.2,5.89-7.52,8.53ZM518.05,221.83l.91-1.03c-2.91-4.31-7.31-6.67-12.08-8.54,3.72,3.19,7.45,6.38,11.17,9.58ZM52.58,229.85c-.18-.26-.35-.53-.53-.79-4.28,1.79-7.8,4.47-10.14,8.53.26.31.51.62.77.93l9.9-8.67ZM113.46,208.32c.34.45.68.89,1.02,1.34,3.82-2.51,6.85-5.94,10.06-9.17-.27-.32-.54-.64-.81-.96-3.42,2.93-6.85,5.86-10.27,8.79ZM144.6,315.04c4.11,2.54,7.51,4.64,10.92,6.74-3.25-5.19-6.94-7.59-10.92-6.74ZM534.39,386.71c1.86-4.94.14-8.54-3.8-8.95,1.32,3.11,2.56,6.03,3.8,8.95ZM162.65,273.76c-.39,3.14-.77,6.27-1.27,10.29,3.56-2.84,3.88-5.55,1.27-10.29ZM135.76,511.43c4.54,1.07,8.05-1.74,7.47-6.27-2.65,2.23-4.84,4.06-7.47,6.27ZM28.74,297.81c3.37,2.11,8.38,1.41,10.69-1.56-4.02.59-7.35,1.07-10.69,1.56ZM502.36,374.18c1.96.18,3.65.42,5.32.4.39,0,1.02-.91,1.07-1.44.05-.5-.49-1.49-.84-1.53-1.98-.2-4.32-1.05-5.55,2.57ZM110.68,236.85c-.42-.35-.83-.69-1.25-1.04-2.17,1.79-4.76,3.25-5.09,6.49l1.16.94c1.73-2.13,3.46-4.26,5.19-6.39ZM531.48,293.14c4.55-2.59,6.87-6.53,5.86-9.92-1.95,3.3-3.84,6.5-5.86,9.92ZM20.17,264.68c-.49-.57-.98-1.13-1.47-1.7-1.63,1.5-3.26,3-4.89,4.49.42.49.85.98,1.27,1.46,1.69-1.42,3.39-2.84,5.08-4.26ZM235.42,438.62c.52-.07,1.03-.13,1.55-.2-.34-2.68-.68-5.36-1.02-8.05-.18.03-.36.06-.53.09v8.15ZM132.46,191.97l.74.87c2.66-2.13,5.33-4.27,7.99-6.4l-1.03-1.21c-2.57,2.25-5.13,4.5-7.7,6.75ZM151.22,374.08l.81.6c3.66-1.15,4.5-2.48,2.75-5.43-1.28,1.74-2.42,3.28-3.56,4.83ZM516.66,374.5c.12-.59.23-1.17.35-1.76-1.37-.25-2.74-.52-4.12-.67-.06,0-.24,1.1-.36,1.69,1.38.25,2.75.49,4.13.74ZM6.78,275.41c1.86-1.09,3.07-1.65,4.09-2.46.61-.49.97-1.34,1.32-2.08.05-.1-.73-.81-.87-.74-.74.38-1.54.81-2.06,1.43-.77.92-1.32,2.01-2.49,3.85ZM189.72,89.43c.43.42.86.83,1.29,1.25,1.15-1.27,2.3-2.54,3.46-3.81-.36-.35-.72-.69-1.09-1.04l-3.66,3.6ZM426.3,144.23c-.25.3-.5.6-.75.9,1.39,1.26,2.78,2.52,4.17,3.78.38-.46.77-.92,1.15-1.39-1.52-1.1-3.05-2.2-4.57-3.29ZM213.36,71.78c-.26-.52-.51-1.04-.77-1.55-1.88,0-3.05,1.07-3.11,3.92,1.29-.79,2.58-1.58,3.87-2.37ZM182.65,95.98c.41.41.83.82,1.24,1.23,1.17-1.28,2.34-2.56,3.51-3.84l-1.11-1.06c-1.22,1.22-2.43,2.45-3.65,3.67ZM196.19,83.53c.25.4.51.81.76,1.21,1.47-.93,2.95-1.86,4.42-2.79l-.77-1.23c-1.47.94-2.94,1.87-4.41,2.81ZM137.72,312c-.01-.22-.02-.45-.03-.67h-5.7c.02.34.03.69.05,1.03,1.89-.12,3.79-.24,5.68-.36ZM255.32,335.73c-.55-.16-1.09-.32-1.64-.47-.2,1.57-.4,3.13-.6,4.7.45.08.9.15,1.35.23.29-1.48.59-2.97.88-4.45Z"/><path class="cls-1" d="M372.26,325.36c3.09-2.04,6.15-4.11,9.27-6.1,2.16-1.38,2.23-1.81.3-5.13-.49.46-.98.84-1.38,1.3-.33.37-.56.84-1.07,1.64.13-5.06-.95-5.84-6.01-5.62-5.96.26-11.93.15-17.89.42-4.93.22-9.84.78-14.76,1.12-5.11.36-10.24.5-15.33,1.04-1.38.15-2.64,1.4-4.39,2.4.08-1.28.14-2.3.24-4.15-5.74,1.06-11.32,2.1-16.89,3.13-.05.28-.1.55-.15.83,1.34.56,2.68,1.12,4.02,1.68-.04.32-.07.64-.11.95-2.54-.22-5.07-.57-7.61-.64-3.18-.09-6.49-.48-9.53.2-10.4,2.33-20.85,3.92-31.52,3.63-2.93-.08-5.18-1.21-7.11-3.79-4.32-5.78-9.11-11.21-13.69-16.79-.47-.57-.85-1.22-1.28-1.83.2-.28.4-.56.6-.85,1.36.89,2.94,1.56,4.04,2.7,3.93,4.06,7.77,8.21,11.49,12.46,1.47,1.68,2.81,2.61,5.2,2.11,2.79-.58,5.68-.67,8.53-.97.07-.32.15-.64.22-.96-.96-.51-1.87-1.24-2.89-1.49-2.74-.67-5.55-1.05-8.29-1.73-.71-.18-1.26-1.03-1.88-1.57.64-.68,1.21-1.84,1.92-1.93,1.39-.17,2.91.05,4.27.47,6.03,1.88,11.9,4.76,18.06,5.6,6.85.94,13.97.42,20.92-.14,5.72-.46,11.36-1.88,17.02-2.97,1.23-.24,2.37-.92,3.56-1.4-.07-.41-.13-.83-.2-1.24-8.08.39-16.16.77-24.24,1.16-.08-.31-.17-.63-.25-.94,1.13-.36,2.24-.93,3.4-1.05,14.73-1.59,29.47-2.92,44.24-.26,6.07,1.09,12.18,2.47,18.3,2.69,4.96.18,9.98-1.18,14.98-1.86.33-.05.66-.18.97-.31,1.47-.64,2.93-1.29,4.4-1.94.15,1.54.31,3.08.46,4.63,4.68-.28,11-4.49,13.74-9.47-2.78-.66-5.44-1.61-8.17-1.89-12.56-1.28-25.14-3.28-37.71-3.24-8.9.03-17.69-1.35-26.55-.9-10.95.55-21.88,1.87-32.82,1.85-9.88-.02-19.76-1.5-29.65-2.14-3.12-.2-6.31.03-9.41.46-.93.13-1.67,1.61-3.05,3.05-2.99-.75-6.68-1.67-10.38-2.6.02-.41.04-.82.07-1.23,4.61-1.02,9.2-2.71,13.85-2.92,10.49-.48,21.01-.13,31.51-.29,6.55-.1,13.1-.49,19.65-.81.78-.04,1.55-.48,2.32-.73,0-.33-.01-.67-.02-1-1.07-.2-2.15-.61-3.21-.56-5.87.26-11.74.93-17.6.88-8.8-.07-17.59-.6-26.38-1-.69-.03-1.35-.52-1.95-1.41,1.95,0,3.91.01,5.86,0,11.4-.08,22.8-.16,34.2-.27.54,0,1.42-.08,1.55-.38,1.55-3.43,4.55-1.9,6.81-1.74,9.67.65,19.31,1.7,28.98,2.49,10.9.88,21.82,1.46,32.7,2.48,12.26,1.15,24.48,2.68,36.73,3.93,1.07.11,2.33-.48,3.34-1.03,1.41-.77,2.67-1.81,4.62-2.53-4.19,4.36-.43,8.57-.43,12.76,0,11.73.12,23.47.12,35.2,0,10.27-.18,20.54-.12,30.81,0,1.59.83,3.18,1.31,4.75.25.83.95,1.71.81,2.43-.69,3.45,1.19,3.7,3.87,3.68,6.88-.07,13.76.03,20.64.14,1.39.02,2.78.38,4.17.58-.02.47-.03.93-.05,1.4-2.98,0-5.95.02-8.93,0-5.2-.04-10.4-.12-15.61-.14-3.93-.02-5.26,1.55-4.91,5.38,1.09,11.9,2.43,23.79,3.08,35.72.53,9.62.02,19.29.34,28.92.12,3.76,1.39,7.48,1.88,11.25,1.4,10.65.67,21.16-2.4,31.48-.16.53-.26,1.08-.44,1.89,14.73-3.05,29.37-2.16,43.99-1.9.02.51.04,1.01.06,1.52-2.05,0-4.1-.07-6.14.01-11.51.47-23.02.98-34.53,1.48-2.23.1-3.7,1-4.56,3.29-.41,1.07-2.05,1.68-3.14,2.49-.37-1.15-.8-2.29-1.1-3.45-.27-1.04-.41-2.11-.6-3.17-1.02.31-2.05.58-3.04.94-2.91,1.06-5.41,2.47-7.02,5.44-1.02,1.89-4.53,1.42-5.82-.47-.49-.72-.86-1.53-1.29-2.3-5.23,3.1-5.13,3.08-6.27-2.86-.61-3.15-1.7-6.21-2.46-9.34-.26-1.07-.28-2.23-.2-3.34.57-8.5,1.65-17,1.57-25.49-.04-3.68-1.99-7.29-1.69-11.35.72-9.45,1.45-18.96,1.19-28.41-.31-11.47-2.06-22.89-2.39-34.36-.24-8.21-5.99-13.07-9.72-19.19-2.63-4.32-5.48-8.51-8.34-12.68-1.13-1.65-2.73-2.98-3.84-4.64-2.45-3.65-4.72-7.41-7.06-11.12.4-.26.81-.53,1.21-.79,8.39,11.18,16.79,22.37,25.18,33.55.34-.16.69-.32,1.03-.48,0-3.82.02-7.64,0-11.46-.02-2.55-.13-5.1-.19-7.65-.04-1.45.22-2.99-.17-4.35-1.74-6.17-1.22-12.3-.09-18.46.15-.81.16-2.28-.18-2.42-.83-.33-1.97-.27-2.85.03-1.23.42-2.33,1.19-3.49,1.82-.11-.22-.23-.44-.34-.66ZM406.23,302.29c-2.29,2.03-5.22,3.5-6.2,5.8-1.07,2.53-2.48,3.77-4.73,4.71-3.17,1.33-4.09,4.16-4.04,7.18.11,6.39.73,12.78.74,19.17.03,14.79,1.28,29.53,1.24,44.33-.04,12.53.64,25.07,1.01,37.61.24,8.02.14,16.06.84,24.04.98,11.21,2.56,22.38,3.9,33.56.17,1.46.02,3.18.76,4.29,1.53,2.33,1.82,4.22.22,6.72-.56.88.02,3.39.92,4.11,1.78,1.42,8.76-2.13,9.02-4.44.82-7.16,1.55-14.33,2.21-21.51.23-2.46.28-4.95.23-7.42-.15-7.08-.48-14.16-.59-21.24-.09-5.74.17-11.49.02-17.24-.17-6.65-.61-13.3-.96-19.94-.05-.86-.31-1.71-.47-2.56-.36-.01-.71-.02-1.07-.03-.39,1.43-.99,2.84-1.13,4.3-1.01,10.21-1.92,20.43-2.88,30.65-.34,3.69-.99,7.32.83,10.96.63,1.26,0,3.27-.4,4.84-.16.63-1.3,1.41-1.97,1.39-.68-.02-1.58-.83-1.93-1.52-.44-.86-.65-1.98-.56-2.95,1-10.66,2.08-21.31,3.14-31.96.88-8.93,1.97-17.85,2.56-26.81.45-6.72.17-6.74-5.97-8.58-.07-.02-.11-.18-.4-.69,1.33-.16,2.57-.09,3.62-.5.91-.35,2.21-1.17,2.31-1.92.44-3.46.72-6.96.68-10.44-.11-8.69-.58-17.38-.63-26.07-.07-11.86.13-23.72.17-35.57,0-.79-.33-1.59-.48-2.27ZM386.15,376.65c.67-1.8,1.68-3.26,1.68-4.72.02-5.38-.28-10.76-.49-16.13-.45-11.03-.9-22.07-1.39-33.1-.13-2.97-1.15-3.54-3.45-1.71-.84.67-1.36,2.24-1.33,3.39.17,7.78.41,15.55.84,23.32.58,10.57,1.45,21.13,2.01,31.71.46,8.56.63,17.14.97,25.71.05,1.2.34,2.4.64,4.41,2.86-5.94,2.7-29.48.54-32.86ZM307.28,291.7c30.26-2.7,59.96,1.36,89.77,4.89-1.18-1.08-2.44-1.67-3.77-1.87-8.38-1.23-16.76-2.43-25.16-3.51-7.84-1-15.67-2.14-23.55-2.68-11.02-.76-22.07-.94-33.1-1.54-2.76-.15-3.99.8-4.19,4.7ZM388.76,452.45c2.58-6.9,2.35-33.13-.18-36.7-.2.48-.49.87-.5,1.27-.39,9.62-.87,19.24-1.04,28.87-.04,2,1.03,4.02,1.73,6.56ZM285.35,318.2c-5.45-2.81-20.49-1.65-25.36,1.74,8.65.75,16.56-.13,25.36-1.74ZM345.01,310.94c.02-.6.03-1.2.05-1.79-4.28-.45-8.56-.93-12.85-1.36-2.87-.29-4.13,1-3.67,4.68,5.56-.52,11.02-1.02,16.47-1.53Z"/><path class="cls-1" d="M198.29,380.25c-2.75-.64-4.81-1.32-6.92-1.56-8.39-.97-16.81-1.8-25.21-2.72-.62-.07-1.2-.43-2.34-.86,3.27-1.76,5.77-2.53,9.14-1.21,3.15,1.24,6.76,1.54,10.2,1.77,8.18.54,16.38.77,24.57,1.16,4.06.19,8.11.44,12.16.71,1.02.07,2.02.31,3.03.47-.01.33-.02.66-.03.99-1.84.13-3.67.37-5.51.37-5.08.02-10.16-.16-15.24-.05-1.58.03-3.15.75-3.87.94Z"/><path class="cls-1" d="M423.27,319.49c16.01-3.55,32.04-6.94,48.5-7.23.15.55.29,1.1.44,1.66-.95.45-1.86,1.17-2.85,1.3-13.71,1.76-27.44,3.45-41.16,5.11-1.6.19-3.23.16-4.84.23-.03-.36-.05-.71-.08-1.07Z"/><path class="cls-1" d="M280.06,339.97c2.51-.3,4.46-3.6,6.91-6.31,1.23-1.36,2.69-2.52,4.04-3.77.48.37.97.74,1.45,1.11-.91,1.73-1.43,3.89-2.8,5.11-7.14,6.37-14.49,12.5-21.76,18.73-1.36,1.17-2.61,2.49-4.01,3.61-.74.59-1.69.91-2.55,1.35-.25-.34-.5-.68-.76-1.02,6.18-5.97,12.36-11.95,19.47-18.81Z"/><path class="cls-1" d="M550.85,197.9c1.09.67,2.3,1.21,3.26,2.04,5,4.33,9.95,8.73,14.9,13.11,1.6,1.41,3.25,2.78,4.74,4.31.53.54.63,1.5.92,2.27-.82.22-1.65.65-2.45.6-.73-.04-1.61-.44-2.1-.97-3.09-3.43-6.02-7-9.14-10.4-1.65-1.8-3.57-3.37-5.41-4.99-1.88-1.65-3.81-3.25-5.72-4.86l.99-1.12Z"/><path class="cls-1" d="M284.32,358.13c-4.87,5.27-8.86,10.68-15.61,13,.64-3.18,11.89-12.84,15.61-13Z"/><path class="cls-1" d="M445.84,440.26c-5.89.48-11.78.96-17.66,1.44-.04-.45-.08-.91-.12-1.36,5.79-1.45,11.62-2.5,17.63-1.85.05.59.1,1.18.16,1.77Z"/><path class="cls-1" d="M430.12,109.02c2.93,1.83,5.34,3.06,7.37,4.75.76.63.65,2.32.93,3.53-1.37-.34-3.27-.24-4.02-1.12-1.62-1.91-2.65-4.32-4.29-7.16Z"/><path class="cls-1" d="M168.69,499.65c3.53-2.06,9.72-2.36,14.37-.01-4.75.36-9.51.73-14.26,1.09-.03-.36-.07-.72-.1-1.08Z"/><path class="cls-1" d="M291.25,308.87c-9.72,2.25-11.65,2.3-14.94.32,5.29-2.02,10.17-.18,14.94-.32Z"/><path class="cls-1" d="M267.3,300.88c-4.53-.76-9.06-1.51-13.59-2.27.05-.41.1-.82.15-1.23,4.57.5,9.14,1.01,13.7,1.51-.09.66-.18,1.32-.26,1.98Z"/><path class="cls-1" d="M476.06,354.6c-.77-3.85-1.54-7.7-2.31-11.54.46-.09.92-.19,1.38-.28.82,3.83,1.63,7.66,2.45,11.49-.51.11-1.02.22-1.52.33Z"/><path class="cls-1" d="M449.75,438.69c5.34-.81,10.69-1.63,16.03-2.44-5,3.47-10.63,2.64-16.03,2.44Z"/><path class="cls-1" d="M344.2,332.2c1.87-1.59,3.74-3.18,5.82-4.95.8,3.39-1.57,5.6-5.82,4.95Z"/><path class="cls-1" d="M300.32,16.54c-1.03-2.18-2.06-4.35-3.33-7.04,3.81.99,4.91,3.22,3.33,7.04Z"/><path class="cls-1" d="M318.07,319.94c-1.37.43-2.73.94-4.13,1.22-.47.09-1.07-.42-1.6-.66.42-.52.79-1.43,1.28-1.49,1.47-.2,2.99-.07,4.49-.07-.01.33-.02.67-.03,1Z"/><path class="cls-1" d="M344.25,67.09c1.06-.34,1.22-.43,1.26-.4,1.4,1.16,2.8,2.32,4.16,3.53.02.02-.48.61-.73.93-1.43-1.24-2.87-2.49-4.69-4.07Z"/><path class="cls-1" d="M462.05,189.21c-.99.27-1.96.69-2.96.79-9.31.98-18.63,2-27.96,2.82-16.43,1.43-32.86,2.78-49.3,4.04-7.66.59-15.35.78-23.01,1.38-2.16.17-4.23,1.26-6.4,1.66-1.34.25-2.89.33-4.15-.09-5.14-1.75-6.73-.65-7.07,4.68-.15,2.3-.91,4.61-1.69,6.81-1.46,4.12-3.44,8.08-4.66,12.27-1.16,3.97-1.83,8.11-2.31,12.22-.3,2.62-.82,4.05-3.69,2.63-6.55-3.23-13.62-3.27-20.7-3.85-5.11-.41-10.11-2.21-15.15-3.41-1.74-.41-3.47-.93-5.22-1.27-2.94-.57-4.34-2.39-3.74-5.27.69-3.32,1.75-6.57,2.21-9.91.29-2.13.06-4.43-.43-6.54-.64-2.77-2.58-3.68-5.45-2.99-1.59.38-3.34.41-4.96.18-.76-.11-2-1.22-1.97-1.82.18-3.26-1.97-3.1-4.05-2.99-17.94.92-35.89,1.66-53.81,2.9-12.7.88-25.34,2.48-38.01,3.7-1.93.19-3.89.03-5.84.03-.02-.46-.04-.93-.06-1.39,21.76-2.18,43.51-4.35,65.27-6.53.01-.33.03-.65.04-.98-6.23-.6-12.46-1.2-18.68-1.8,0-.45,0-.9,0-1.34,1.09-.05,2.19-.19,3.27-.15,16.47.64,32.93,1.32,49.4,1.96,3.88.15,7.09-2.55,8.03-6.28.38-1.52,1.34-2.91,2.06-4.34.25-.5.61-.95.92-1.41,3.17-4.73,6.08-9.66,9.64-14.08,1.38-1.71,4.12-2.55,6.41-3.25,2.46-.76,5.11-.9,7.67-1.28,2.25-.34,3.26-1.77,2.78-3.83-1.3-5.54.06-10.55,2.77-15.28.66-1.15,2.39-2.81,3.07-2.58,1.48.49,3.45,1.88,3.74,3.21,1.01,4.73,1.6,9.58,1.94,14.41.18,2.56.92,3.64,3.58,3.63,5.87-.04,10.09,2.52,12.19,8.23.29.78,1.07,1.5,1.8,1.98,6.04,3.98,9.18,10.15,12.1,16.36,1.48,3.14,4,3.09,6.49,3.03,8.22-.21,16.44-.5,24.63-1.05,16.1-1.08,32.2-2.23,48.27-3.64,5.34-.47,10.6-1.83,15.9-2.76.54-.1,1.1-.1,1.65-.1,3.87.03,7.75.08,11.62.12,1.22.01,2.43,0,3.65,0,.04.41.08.81.12,1.22ZM322.02,217.95c-.38-.08-.75-.17-1.13-.25.43-3,.29-6.22,1.39-8.95,2.26-5.59,1.53-7.75-4.5-7.91-7.28-.19-14.58.3-21.85.81-1.15.08-2.7,1.65-3.18,2.88-2.93,7.53.41,14.55,2.22,21.66.14.54.83,1.04,1.37,1.37,6.43,3.98,12.79,1.75,19.11-.32,3.13-1.02,6.12-2.68,9.31-3.18,2.81-.44,4.19-1.57,4.98-4.13,1.19-3.86,2.56-7.66,3.88-11.47,1.88-5.44.78-7.04-4.78-6.22-1.25.18-2.84,1.72-3.27,2.98-1.01,2.97-1.35,6.16-2.1,9.23-.3,1.21-.96,2.34-1.46,3.5ZM331.03,194.45c5.13.38,7.32-1.28,5.56-4.47-2.45-4.45-5.67-8.47-8.56-12.68-.37-.53-.99-1.08-1.01-1.64-.12-3.98-3.01-4.74-6.02-5.07-3.68-.4-7.4-.53-11.1-.74-4.92-.27-9.02,1.08-11.84,5.53-1.38,2.17-3.3,3.99-4.91,6.03-2.43,3.07-5.02,6.06-7.14,9.34-1.4,2.16-.4,3.4,2.2,3.17.97-.09,2.09-.37,2.83-.95,4.98-3.94,10.41-3.57,16.04-1.93,2.8.81,5.57,1.93,8.42,2.28,5.14.63,10.35.79,15.52,1.14ZM309.02,195.8c-5.13-2.71-9.4-2.68-11.25,0h11.25Z"/><path class="cls-1" d="M337.89,85.99c2.67,2,4.98,3.72,7.29,5.44-.22.31-.45.62-.67.93-1.82-2.4-7.05-.04-6.61-6.37Z"/><path class="cls-1" d="M426.92,152.57c-4.45.67-5.08-4.07-8.05-5.49,3.5.69,6.36,2.26,8,5.55,0,0,.05-.06.05-.06Z"/><path class="cls-1" d="M315.38,69.44c-3.07,0-4.35-1.73-5.47-5.7.23-.18.47-.36.7-.55,1.41,1.85,2.82,3.69,4.77,6.24Z"/><path class="cls-1" d="M138.24,362.77c-3.36,4.32-7.73,6.32-13.03,6.43-6.78.13-13.44-3.18-14.24-8.09-.77-4.77-.63-9.9.25-14.66.78-4.2,3.01-8.16,4.87-12.11.67-1.42,2.12-2.48,3.22-3.7.38.24.77.49,1.15.73-.39,1.05-.68,2.15-1.18,3.14-3.48,6.86-6.87,13.72-6.77,21.71.06,5.35,4.54,10.48,9.8,10.58,1.4.03,2.83-1.02,4.57-1.7,4.41,4.11,6.84-2.54,11.37-2.33Z"/><path class="cls-1" d="M471.11,93.21c-.9.86-1.71,2.29-2.73,2.46-1.83.31-3.82.02-5.68-.31-4.59-.82-9.05-.92-13.39,1.22-.5.25-2.18-.5-2.23-.92-.41-3.42-.62-6.87-.68-10.32,0-.22,2.12-.95,2.67-.58.79.54,1.47,1.89,1.43,2.86-.13,3.56,1.6,4.85,4.91,4.81,2.45-.03,4.91.15,7.36.19,2.44.04,4.89,0,7.33,0,.34.2.68.39,1.01.59Z"/><path class="cls-1" d="M439.95,66.55c-3.11.02-6.23.21-9.32.02-3.2-.2-6.38-.77-9.99-1.23,2.26-2.79,4.2-.1,6.07-.25,2.27-.19,4.52-.78,6.79-.81,2.17-.03,4.35.44,6.53.68-.03.53-.05,1.06-.08,1.58Z"/><path class="cls-1" d="M448.04,54.28c.57,1.8,1.15,3.61,1.72,5.41-2.08-1.32-3.74-2.78-3.11-5.07.46-.11.92-.23,1.39-.34Z"/><path class="cls-1" d="M140.5,287.86c1.07-3,1.72-6.24,3.33-8.91,1.43-2.37,1.07-3.88-.53-5.62-.3-.33-.6-.67-.85-1.05-.96-1.45-2.77-3.13-.68-4.54.66-.45,3.45.95,4.18,2.16,2.63,4.34.87,8.75-.85,12.91-.83,2.02-2.35,3.75-3.56,5.62-.35-.19-.7-.38-1.05-.57Z"/><path class="cls-1" d="M511.46,259.9c-.2-2.66.48-5.2,2.83-6.17,2.11-.87,4.1.14,5.57,2.52,5.29,8.54,2,20.88-5.56,25.55-5.24,3.24-10.95,3.05-16.71,1.75-.57-.13-1.27-.71-1.49-1.25-2.37-5.64-3.21-11.44.24-16.85,1.05-1.65,3.53-2.39,5.57-3.69-1.53,4.95-2.96,9.27-4.17,13.65-.31,1.13-.11,2.49.15,3.68.61,2.78,1.94,3.92,5.26,3.64,7.14-.6,12.02-3.96,14.32-10.52,1.2-3.42,1.55-7.24,1.66-10.89.04-1.31-1.58-3.54-2.75-3.78-1.27-.26-2.92,1.32-4.92,2.36Z"/><path class="cls-1" d="M120.04,468.71c-6.31,4.44-8.93,10.85-9.53,18.14-.54,6.47,1.68,8.97,8.19,10.06.49.08.97.24,1.83.45-5.43,2.04-11.44-1.63-12.68-6.97-1.65-7.13.2-13.44,4.57-18.87,1.53-1.9,4.62-2.54,7-3.75.2.32.41.63.61.95Z"/><path class="cls-1" d="M135.24,407.33c.92-.09,2.28-.68,3.1-.25,5.19,2.75,8.56,10.34,3.39,16.17.19-3.23,1.27-6.57.29-9.11-.97-2.5-4.02-4.19-6.77-6.82Z"/><path class="cls-1" d="M518.94,456.35c5.93,5.78,3.21,15.55-1.62,20.24-4.67,4.55-14.75,4.21-18.87-.87,6.35,2.89,12.02,2.26,16.96-2.19,5.03-4.53,4.35-10.65,3.53-17.18Z"/><path class="cls-1" d="M519.36,381.71c.27,1.77.77,3.54.78,5.32.04,7.54-1.92,14.48-6.47,20.6-4.13,5.56-11.08,5.61-16.44.18,2.84.28,5.78.93,8.66.73,1.65-.12,3.69-1.26,4.72-2.59,5.18-6.73,7.46-14.52,7.57-22.97,0-.39.19-.78.29-1.18.29-.03.59-.06.88-.09Z"/><path class="cls-1" d="M501.95,386.73c-.97,3.22-2.17,6.06-2.6,9.01-.43,2.94-.1,6-.1,9.47-2.88-.99-3.14-3.31-3.26-5.55-.31-5.77,2.45-11.93,5.96-12.92Z"/><path class="cls-1" d="M516.73,321.28c7.06-.07,9.33,1.99,9.75,7.88.6,8.38-.88,16.13-7.87,21.58-5.71,4.45-16.07,4.17-19.03-3.47-1.62-4.2-.37-8.37,1.83-11.93.74-1.19,3.47-1.16,5.57-1.25-5.07,3.07-4.71,8.32-5.58,12.88-.2,1.03,1.13,3.11,2.2,3.51,6.59,2.45,14.47-1.78,17.2-6.99,2.52-4.8,3.22-9.61,2.87-14.6-.13-1.92-2.28-3.78-3.69-5.51-.61-.75-1.7-1.12-3.25-2.09Z"/><path class="cls-1" d="M102.92,317.13c-1.44,1.11-2.88,2.21-4.32,3.32-.32-.45-.64-.91-.96-1.36,1.54-.96,3.08-1.92,4.62-2.88.22.31.44.61.66.92Z"/></g></svg>